<svg width="96" height="32" viewBox="0 0 96 32" fill="none" xmlns="http://www.w3.org/2000/svg">
<g clip-path="url(#clip0_2225_30366)">
<path d="M88.5083 0.000104H8.02814C7.73478 0.000104 7.44494 0.000104 7.15235 0.001704C6.90743 0.003304 6.66447 0.007952 6.41719 0.011864C5.88 0.0181854 5.34408 0.065445 4.81407 0.153232C4.28481 0.24293 3.77213 0.412037 3.29337 0.654832C2.81519 0.899681 2.37827 1.21784 1.99845 1.59776C1.61663 1.97661 1.29836 2.41452 1.05587 2.89463C0.812711 3.37379 0.644103 3.88725 0.555871 4.41729C0.466799 4.94665 0.418869 5.48212 0.412511 6.01889C0.405087 6.26417 0.404303 6.51026 0.400391 6.75558V25.247C0.404303 25.4954 0.405087 25.736 0.412511 25.9845C0.418871 26.5212 0.466801 27.0567 0.555871 27.586C0.64386 28.1164 0.812477 28.6301 1.05587 29.1095C1.29825 29.588 1.61657 30.0242 1.99845 30.4009C2.37683 30.7825 2.81403 31.1009 3.29337 31.3439C3.77213 31.5873 4.28475 31.7574 4.81407 31.8485C5.34417 31.9356 5.88004 31.9829 6.41719 31.9899C6.66447 31.9954 6.90743 31.9985 7.15235 31.9985C7.44493 32.0001 7.7348 32.0001 8.02814 32.0001H88.5083C88.7958 32.0001 89.0879 32.0001 89.3755 31.9985C89.6192 31.9985 89.8692 31.9954 90.113 31.9899C90.6491 31.9832 91.184 31.936 91.713 31.8485C92.244 31.7568 92.7585 31.5867 93.2395 31.3439C93.7184 31.1007 94.1553 30.7824 94.5333 30.4009C94.9142 30.0227 95.2332 29.5869 95.4786 29.1095C95.7202 28.6298 95.8872 28.1161 95.9739 27.586C96.0631 27.0566 96.1127 26.5213 96.1223 25.9845C96.1255 25.736 96.1255 25.4954 96.1255 25.247C96.1317 24.9563 96.1317 24.6673 96.1317 24.3719V7.62901C96.1317 7.33604 96.1317 7.04541 96.1255 6.75558C96.1255 6.51026 96.1255 6.26417 96.1223 6.01886C96.1127 5.48204 96.0631 4.94669 95.9739 4.41726C95.8869 3.88753 95.7199 3.37411 95.4786 2.8946C94.9848 1.93226 94.2017 1.14892 93.2395 0.65476C92.7585 0.412558 92.244 0.243496 91.713 0.15316C91.1841 0.0649862 90.6492 0.0177102 90.113 0.011752C89.8692 0.007848 89.6192 0.00316 89.3755 0.0016C89.0879 0 88.7958 0 88.5083 0V0.000104Z" fill="#A6A6A6"/>
<path d="M7.15609 31.3002C6.91235 31.3002 6.67449 31.2971 6.43266 31.2916C5.93168 31.2851 5.43188 31.2415 4.93735 31.1612C4.47622 31.0817 4.02951 30.934 3.61195 30.7228C3.19823 30.5134 2.82088 30.2388 2.49435 29.9096C2.16311 29.5842 1.88733 29.2068 1.67795 28.7924C1.46626 28.3752 1.31976 27.9281 1.24354 27.4666C1.16124 26.9707 1.11672 26.4692 1.11034 25.9666C1.10527 25.7979 1.09863 25.2361 1.09863 25.2361V6.75567C1.09863 6.75567 1.1057 6.20254 1.11038 6.04004C1.11649 5.53818 1.16075 5.03752 1.24281 4.54238C1.31916 4.0796 1.46577 3.63119 1.67758 3.2127C1.88619 2.79855 2.16044 2.42088 2.48969 2.09434C2.81857 1.76469 3.19713 1.48868 3.61156 1.27636C4.02816 1.06587 4.47402 0.919181 4.93422 0.841211C5.43038 0.760064 5.93192 0.716192 6.43463 0.709963L7.15648 0.700195H89.3714L90.1018 0.710355C90.6 0.716275 91.097 0.759755 91.5886 0.840427C92.0534 0.919375 92.5039 1.06709 92.9253 1.27871C93.7555 1.70658 94.4311 2.38353 94.8573 3.21465C95.0657 3.63026 95.2101 4.075 95.2854 4.53379C95.3685 5.03299 95.4149 5.53759 95.4245 6.04356C95.4268 6.27012 95.4268 6.51348 95.4268 6.75567C95.4331 7.05567 95.4331 7.34121 95.4331 7.6291V24.372C95.4331 24.6627 95.4331 24.9463 95.4268 25.2322C95.4268 25.4924 95.4268 25.7307 95.4237 25.976C95.4143 26.4729 95.3687 26.9685 95.287 27.4588C95.2123 27.9236 95.0666 28.3742 94.855 28.7948C94.6441 29.2047 94.3699 29.5788 94.0425 29.9033C93.7157 30.2343 93.3376 30.5106 92.923 30.7213C92.5028 30.9341 92.0529 31.0824 91.5886 31.1612C91.0941 31.2419 90.5942 31.2855 90.0932 31.2916C89.8589 31.2971 89.6135 31.3002 89.3753 31.3002L88.5081 31.3018L7.15609 31.3002Z" fill="black"/>
<path d="M20.2153 16.2409C20.2239 15.5731 20.4013 14.9184 20.7309 14.3377C21.0605 13.7569 21.5317 13.2689 22.1005 12.9192C21.7392 12.4031 21.2624 11.9783 20.7081 11.6787C20.1539 11.379 19.5374 11.2128 18.9076 11.1931C17.5642 11.052 16.2619 11.9969 15.5773 11.9969C14.8795 11.9969 13.8255 11.2071 12.6905 11.2304C11.9564 11.2541 11.2409 11.4676 10.6138 11.8501C9.98667 12.2325 9.46933 12.7709 9.11216 13.4127C7.56496 16.0914 8.71903 20.0283 10.2011 22.1936C10.9426 23.2538 11.8093 24.4382 12.9432 24.3962C14.0529 24.3502 14.4673 23.6886 15.8067 23.6886C17.1338 23.6886 17.5226 24.3962 18.6795 24.3695C19.8702 24.3502 20.6205 23.3045 21.336 22.2342C21.8687 21.4787 22.2787 20.6437 22.5507 19.7602C21.8589 19.4676 21.2686 18.9779 20.8533 18.352C20.438 17.7262 20.2161 16.9919 20.2153 16.2409Z" fill="white"/>
<path d="M18.0299 9.76906C18.6791 8.98969 18.9989 7.98795 18.9215 6.97656C17.9296 7.08074 17.0134 7.55479 16.3554 8.30425C16.0337 8.67038 15.7873 9.09633 15.6303 9.55775C15.4733 10.0192 15.4088 10.507 15.4404 10.9934C15.9366 10.9985 16.4274 10.8909 16.8759 10.6789C17.3244 10.4668 17.719 10.1557 18.0299 9.76906Z" fill="white"/>
<path d="M34.2419 21.7121H30.4552L29.5458 24.3973H27.9419L31.5286 14.4629H33.195L36.7817 24.3973H35.1505L34.2419 21.7121ZM30.8474 20.4731H33.849L32.3693 16.1153H32.3279L30.8474 20.4731Z" fill="white"/>
<path d="M44.5278 20.7761C44.5278 23.0269 43.3231 24.473 41.5051 24.473C41.0446 24.4971 40.5866 24.391 40.1835 24.1669C39.7805 23.9428 39.4487 23.6097 39.2262 23.2058H39.1918V26.7933H37.7051V17.1543H39.1442V18.359H39.1715C39.4043 17.957 39.7417 17.6256 40.1478 17.4002C40.5539 17.1747 41.0135 17.0635 41.4778 17.0785C43.316 17.0785 44.5278 18.5316 44.5278 20.7761ZM42.9996 20.7761C42.9996 19.3097 42.2418 18.3457 41.0856 18.3457C39.9496 18.3457 39.1856 19.3301 39.1856 20.7761C39.1856 22.2355 39.9496 23.2129 41.0856 23.2129C42.2418 23.2129 42.9996 22.2558 42.9996 20.7761Z" fill="white"/>
<path d="M52.4999 20.7761C52.4999 23.0269 51.2952 24.473 49.4773 24.473C49.0167 24.4971 48.5587 24.391 48.1557 24.1669C47.7527 23.9428 47.4209 23.6097 47.1984 23.2058H47.164V26.7933H45.6772V17.1543H47.1163V18.3589H47.1436C47.3764 17.957 47.7138 17.6256 48.1199 17.4002C48.526 17.1747 48.9856 17.0635 49.4499 17.0785C51.2882 17.0785 52.4999 18.5316 52.4999 20.7761ZM50.9718 20.7761C50.9718 19.3097 50.214 18.3457 49.0577 18.3457C47.9218 18.3457 47.1577 19.33 47.1577 20.7761C47.1577 22.2355 47.9218 23.2129 49.0577 23.2129C50.214 23.2129 50.9718 22.2558 50.9718 20.7761H50.9718Z" fill="white"/>
<path d="M57.7685 21.6289C57.8786 22.6141 58.8357 23.2609 60.1435 23.2609C61.3966 23.2609 62.2982 22.6141 62.2982 21.7258C62.2982 20.9547 61.7544 20.493 60.4669 20.1766L59.1794 19.8664C57.3552 19.4258 56.5083 18.5727 56.5083 17.1883C56.5083 15.4742 58.0021 14.2969 60.1232 14.2969C62.2224 14.2969 63.6614 15.4742 63.7099 17.1883H62.2091C62.1192 16.1969 61.2997 15.5984 60.1021 15.5984C58.9044 15.5984 58.0849 16.2039 58.0849 17.0852C58.0849 17.7875 58.6083 18.2008 59.8888 18.5172L60.9833 18.7859C63.0216 19.2679 63.8685 20.0867 63.8685 21.5398C63.8685 23.3984 62.388 24.5625 60.0333 24.5625C57.8302 24.5625 56.3427 23.4258 56.2466 21.6289L57.7685 21.6289Z" fill="white"/>
<path d="M67.0771 15.4395V17.1535H68.4545V18.3309H67.0771V22.3238C67.0771 22.9441 67.3529 23.2332 67.9584 23.2332C68.1219 23.2304 68.2851 23.2189 68.4475 23.1988V24.3691C68.1752 24.42 67.8986 24.443 67.6217 24.4379C66.1553 24.4379 65.5834 23.8871 65.5834 22.4824V18.3309H64.5303V17.1535H65.5834V15.4395H67.0771Z" fill="white"/>
<path d="M69.252 20.7754C69.252 18.4965 70.5941 17.0645 72.6871 17.0645C74.7871 17.0645 76.1231 18.4965 76.1231 20.7754C76.1231 23.0606 74.7941 24.4863 72.6871 24.4863C70.5808 24.4863 69.252 23.0605 69.252 20.7754ZM74.6082 20.7754C74.6082 19.2121 73.8918 18.2895 72.6871 18.2895C71.4824 18.2895 70.7668 19.2191 70.7668 20.7754C70.7668 22.3449 71.4824 23.2605 72.6871 23.2605C73.8918 23.2605 74.6082 22.3449 74.6082 20.7754H74.6082Z" fill="white"/>
<path d="M77.3491 17.1542H78.7671V18.387H78.8015C78.8974 18.002 79.123 17.6617 79.4403 17.4234C79.7575 17.1851 80.1472 17.0633 80.5437 17.0784C80.715 17.0778 80.8859 17.0964 81.0531 17.1339V18.5245C80.8368 18.4584 80.6111 18.4281 80.3851 18.4347C80.1691 18.4259 79.9538 18.464 79.7539 18.5463C79.554 18.6286 79.3743 18.7532 79.2271 18.9115C79.08 19.0698 78.9688 19.2581 78.9012 19.4634C78.8337 19.6688 78.8114 19.8863 78.8358 20.1011V24.3972H77.3491L77.3491 17.1542Z" fill="white"/>
<path d="M87.9076 22.2691C87.7076 23.584 86.4272 24.4863 84.7889 24.4863C82.6818 24.4863 81.374 23.0746 81.374 20.8098C81.374 18.5379 82.6889 17.0645 84.7264 17.0645C86.7303 17.0645 87.9904 18.441 87.9904 20.6371V21.1465H82.8748V21.2363C82.8512 21.5029 82.8846 21.7714 82.9727 22.0241C83.0609 22.2768 83.2018 22.5078 83.386 22.7018C83.5703 22.8959 83.7938 23.0485 84.0416 23.1495C84.2894 23.2506 84.5558 23.2977 84.8233 23.2879C85.1746 23.3208 85.5271 23.2394 85.8285 23.0559C86.1299 22.8723 86.364 22.5964 86.4959 22.2691L87.9076 22.2691ZM82.8818 20.1074H86.5029C86.5163 19.8677 86.4799 19.6279 86.3962 19.4029C86.3125 19.178 86.1831 18.9727 86.0163 18.8001C85.8495 18.6275 85.6488 18.4912 85.4268 18.3999C85.2048 18.3085 84.9664 18.264 84.7264 18.2691C84.4843 18.2677 84.2443 18.3142 84.0202 18.406C83.7962 18.4978 83.5926 18.6331 83.4211 18.804C83.2496 18.9749 83.1136 19.178 83.0211 19.4018C82.9285 19.6255 82.8812 19.8653 82.8818 20.1074V20.1074Z" fill="white"/>
<path d="M30.6612 6.98491C30.9729 6.96254 31.2857 7.00963 31.577 7.12278C31.8683 7.23592 32.1308 7.41231 32.3457 7.63921C32.5606 7.86611 32.7224 8.13787 32.8195 8.43488C32.9166 8.7319 32.9466 9.04677 32.9073 9.35678C32.9073 10.8818 32.0831 11.7584 30.6612 11.7584H28.937V6.98491H30.6612ZM29.6784 11.0833H30.5784C30.8011 11.0966 31.024 11.0601 31.2309 10.9764C31.4377 10.8927 31.6233 10.764 31.7741 10.5995C31.9248 10.4351 32.0371 10.2391 32.1026 10.0258C32.1681 9.81246 32.1852 9.58725 32.1526 9.36651C32.1828 9.14664 32.164 8.92282 32.0975 8.71109C32.031 8.49936 31.9185 8.30496 31.768 8.14182C31.6176 7.97867 31.4329 7.85083 31.2272 7.76744C31.0216 7.68405 30.8 7.64718 30.5784 7.65948H29.6784V11.0833Z" fill="white"/>
<path d="M33.7449 9.95602C33.7222 9.71928 33.7493 9.48043 33.8244 9.25477C33.8994 9.02912 34.0208 8.82164 34.1808 8.64566C34.3407 8.46967 34.5357 8.32906 34.7532 8.23284C34.9707 8.13662 35.2059 8.08691 35.4437 8.08691C35.6815 8.08691 35.9167 8.13662 36.1342 8.23284C36.3517 8.32906 36.5466 8.46967 36.7066 8.64566C36.8665 8.82164 36.9879 9.02912 37.063 9.25477C37.1381 9.48043 37.1652 9.71928 37.1425 9.95602C37.1656 10.193 37.1388 10.4322 37.064 10.6582C36.9891 10.8842 36.8677 11.0921 36.7078 11.2684C36.5478 11.4447 36.3526 11.5856 36.1349 11.6821C35.9172 11.7785 35.6818 11.8283 35.4437 11.8283C35.2056 11.8283 34.9701 11.7785 34.7524 11.6821C34.5347 11.5856 34.3396 11.4447 34.1796 11.2684C34.0196 11.0921 33.8983 10.8842 33.8234 10.6582C33.7485 10.4322 33.7218 10.193 33.7449 9.95602ZM36.4113 9.95602C36.4113 9.17516 36.0605 8.71852 35.4449 8.71852C34.8269 8.71852 34.4793 9.17516 34.4793 9.95602C34.4793 10.7431 34.8269 11.1963 35.4449 11.1963C36.0605 11.1962 36.4113 10.74 36.4113 9.95602H36.4113Z" fill="white"/>
<path d="M41.6589 11.7586H40.9214L40.1769 9.10547H40.1206L39.3792 11.7586H38.6487L37.6558 8.15625H38.3769L39.0222 10.905H39.0753L39.8159 8.15625H40.498L41.2386 10.905H41.2948L41.937 8.15625H42.6479L41.6589 11.7586Z" fill="white"/>
<path d="M43.4829 8.15609H44.1673V8.72835H44.2204C44.3105 8.52282 44.4625 8.35052 44.6552 8.23548C44.8479 8.12043 45.0717 8.06837 45.2954 8.08655C45.4707 8.07338 45.6467 8.0998 45.8104 8.16388C45.974 8.22796 46.1212 8.32804 46.241 8.45672C46.3607 8.58539 46.45 8.73936 46.5021 8.90722C46.5543 9.07507 46.568 9.25251 46.5423 9.42639V11.7584H45.8314V9.60492C45.8314 9.02602 45.5798 8.73812 45.054 8.73812C44.935 8.73258 44.8162 8.75283 44.7058 8.7975C44.5953 8.84216 44.4958 8.91018 44.4141 8.99689C44.3324 9.0836 44.2704 9.18694 44.2324 9.29985C44.1944 9.41275 44.1812 9.53254 44.1938 9.65101V11.7584H43.4829L43.4829 8.15609Z" fill="white"/>
<path d="M47.6753 6.75H48.3862V11.7586H47.6753V6.75Z" fill="white"/>
<path d="M49.3747 9.95608C49.3521 9.71933 49.3792 9.48047 49.4543 9.2548C49.5294 9.02914 49.6508 8.82166 49.8108 8.64567C49.9707 8.46968 50.1657 8.32906 50.3832 8.23284C50.6007 8.13662 50.8359 8.08691 51.0737 8.08691C51.3116 8.08691 51.5468 8.13662 51.7643 8.23284C51.9818 8.32906 52.1768 8.46968 52.3367 8.64567C52.4967 8.82166 52.6181 9.02914 52.6932 9.2548C52.7683 9.48047 52.7954 9.71933 52.7728 9.95608C52.7958 10.1931 52.769 10.4323 52.6941 10.6583C52.6192 10.8843 52.4979 11.0921 52.3379 11.2685C52.1779 11.4448 51.9827 11.5857 51.765 11.6821C51.5473 11.7785 51.3119 11.8284 51.0737 11.8284C50.8356 11.8284 50.6002 11.7785 50.3825 11.6821C50.1647 11.5857 49.9696 11.4448 49.8096 11.2685C49.6496 11.0921 49.5282 10.8843 49.4534 10.6583C49.3785 10.4323 49.3517 10.1931 49.3747 9.95608ZM52.0411 9.95608C52.0411 9.17523 51.6903 8.71859 51.0747 8.71859C50.4568 8.71859 50.1091 9.17523 50.1091 9.95609C50.1091 10.7432 50.4568 11.1963 51.0747 11.1963C51.6903 11.1963 52.0411 10.7401 52.0411 9.95608H52.0411Z" fill="white"/>
<path d="M53.521 10.74C53.521 10.0916 54.0038 9.71777 54.8608 9.66464L55.8366 9.60839V9.29746C55.8366 8.91699 55.5851 8.70215 55.0991 8.70215C54.7023 8.70215 54.4273 8.84785 54.3483 9.10254H53.6601C53.7327 8.48379 54.3148 8.08691 55.1319 8.08691C56.0351 8.08691 56.5444 8.53651 56.5444 9.29746V11.7588H55.8601V11.2525H55.8038C55.6896 11.4341 55.5293 11.5822 55.3392 11.6815C55.1491 11.7809 54.9361 11.828 54.7218 11.8181C54.5706 11.8339 54.4177 11.8177 54.2731 11.7708C54.1285 11.7238 53.9953 11.6471 53.8822 11.5455C53.7691 11.4439 53.6785 11.3198 53.6163 11.181C53.554 11.0423 53.5216 10.8921 53.521 10.74ZM55.8366 10.4322V10.1311L54.9569 10.1873C54.4608 10.2205 54.2358 10.3893 54.2358 10.7068C54.2358 11.031 54.5171 11.2197 54.9038 11.2197C55.0172 11.2312 55.1316 11.2197 55.2404 11.1861C55.3492 11.1524 55.4501 11.0972 55.5372 11.0237C55.6242 10.9502 55.6956 10.86 55.747 10.7584C55.7984 10.6568 55.8289 10.5459 55.8366 10.4322Z" fill="white"/>
<path d="M57.479 9.95587C57.479 8.81759 58.0642 8.0965 58.9743 8.0965C59.1994 8.08612 59.4229 8.14005 59.6185 8.25196C59.8141 8.36388 59.9738 8.52916 60.079 8.7285H60.1321V6.75H60.8431V11.7586H60.1618V11.1894H60.1056C59.9923 11.3874 59.827 11.5507 59.6276 11.6615C59.4282 11.7722 59.2023 11.8264 58.9743 11.818C58.0579 11.818 57.479 11.0969 57.479 9.95587ZM58.2134 9.95587C58.2134 10.7199 58.5736 11.1797 59.1759 11.1797C59.7751 11.1797 60.1454 10.7133 60.1454 9.959C60.1454 9.20822 59.7712 8.73517 59.1759 8.73517C58.5774 8.73517 58.2134 9.19806 58.2134 9.95587H58.2134Z" fill="white"/>
<path d="M63.7844 9.95602C63.7618 9.71928 63.7888 9.48043 63.8639 9.25477C63.939 9.02912 64.0604 8.82164 64.2203 8.64566C64.3803 8.46967 64.5753 8.32906 64.7927 8.23284C65.0102 8.13662 65.2454 8.08691 65.4832 8.08691C65.721 8.08691 65.9562 8.13662 66.1737 8.23284C66.3912 8.32906 66.5862 8.46967 66.7461 8.64566C66.9061 8.82164 67.0275 9.02912 67.1025 9.25477C67.1776 9.48043 67.2047 9.71928 67.1821 9.95602C67.2051 10.193 67.1784 10.4322 67.1035 10.6582C67.0286 10.8842 66.9073 11.0921 66.7473 11.2684C66.5873 11.4447 66.3922 11.5856 66.1745 11.6821C65.9568 11.7785 65.7213 11.8283 65.4832 11.8283C65.2451 11.8283 65.0097 11.7785 64.792 11.6821C64.5743 11.5856 64.3792 11.4447 64.2192 11.2684C64.0592 11.0921 63.9378 10.8842 63.863 10.6582C63.7881 10.4322 63.7613 10.193 63.7844 9.95602ZM66.4508 9.95602C66.4508 9.17516 66.1 8.71852 65.4844 8.71852C64.8664 8.71852 64.5188 9.17516 64.5188 9.95602C64.5188 10.7431 64.8665 11.1963 65.4844 11.1963C66.1 11.1962 66.4508 10.74 66.4508 9.95602Z" fill="white"/>
<path d="M68.1357 8.15609H68.8201V8.72835H68.8732C68.9634 8.52282 69.1154 8.35052 69.3081 8.23548C69.5008 8.12043 69.7246 8.06837 69.9482 8.08655C70.1235 8.07338 70.2995 8.0998 70.4632 8.16388C70.6269 8.22796 70.774 8.32804 70.8938 8.45672C71.0135 8.58539 71.1028 8.73936 71.155 8.90722C71.2071 9.07507 71.2208 9.25251 71.1951 9.42639V11.7584H70.4842V9.60492C70.4842 9.02602 70.2326 8.73812 69.7068 8.73812C69.5878 8.73258 69.469 8.75283 69.3586 8.7975C69.2481 8.84216 69.1487 8.91018 69.067 8.99689C68.9853 9.0836 68.9233 9.18694 68.8853 9.29985C68.8472 9.41275 68.8341 9.53254 68.8467 9.65101V11.7584H68.1357V8.15609Z" fill="white"/>
<path d="M75.2123 7.25977V8.17305H75.9928V8.77188H75.2123V10.6242C75.2123 11.0016 75.3678 11.1668 75.7217 11.1668C75.8123 11.1665 75.9028 11.161 75.9928 11.1504V11.7426C75.8651 11.7654 75.7357 11.7776 75.6061 11.7789C74.8154 11.7789 74.5006 11.5008 74.5006 10.8062V8.77184H73.9287V8.17301H74.5006V7.25977H75.2123Z" fill="white"/>
<path d="M76.9639 6.75H77.6686V8.73516H77.7248C77.8193 8.5277 77.9755 8.35443 78.172 8.23895C78.3686 8.12347 78.596 8.07141 78.8232 8.08985C78.9976 8.08036 79.1719 8.10947 79.3337 8.1751C79.4955 8.24074 79.6409 8.34128 79.7594 8.46955C79.8779 8.59782 79.9666 8.75066 80.0192 8.91717C80.0719 9.08367 80.0871 9.25974 80.0638 9.43282V11.7586H79.3522V9.6082C79.3522 9.03281 79.0842 8.7414 78.5819 8.7414C78.4597 8.73138 78.3368 8.74818 78.2217 8.79062C78.1067 8.83306 78.0024 8.90013 77.916 8.98711C77.8296 9.0741 77.7632 9.17892 77.7216 9.29423C77.6799 9.40954 77.664 9.53256 77.6748 9.65468V11.7586H76.9639L76.9639 6.75Z" fill="white"/>
<path d="M84.2091 10.7862C84.1125 11.1154 83.9032 11.4002 83.6179 11.5907C83.3325 11.7812 82.9893 11.8654 82.6482 11.8284C82.4108 11.8346 82.175 11.7892 81.957 11.6952C81.739 11.6011 81.5441 11.4608 81.3857 11.2839C81.2274 11.107 81.1095 10.8977 81.0401 10.6707C80.9708 10.4436 80.9517 10.2042 80.9841 9.96901C80.9525 9.7331 80.972 9.49315 81.0411 9.26541C81.1103 9.03768 81.2277 8.82746 81.3851 8.649C81.5426 8.47055 81.7366 8.32801 81.954 8.23104C82.1714 8.13408 82.407 8.08494 82.645 8.08697C83.6474 8.08697 84.2521 8.77177 84.2521 9.90297V10.151H81.7083V10.1909C81.6972 10.3231 81.7138 10.4561 81.7571 10.5815C81.8004 10.7069 81.8694 10.8219 81.9598 10.9191C82.0501 11.0162 82.1597 11.0935 82.2816 11.1458C82.4036 11.1981 82.535 11.2244 82.6677 11.2229C82.8378 11.2433 83.0101 11.2127 83.1627 11.1349C83.3153 11.0571 83.4413 10.9358 83.5247 10.7862L84.2091 10.7862ZM81.7083 9.62525H83.5278C83.5368 9.50435 83.5204 9.38291 83.4796 9.26874C83.4388 9.15456 83.3746 9.05018 83.2911 8.96229C83.2076 8.87441 83.1067 8.80496 82.9947 8.75842C82.8828 8.71188 82.7623 8.68928 82.6411 8.69205C82.5182 8.69051 82.3961 8.7136 82.2822 8.75995C82.1683 8.80631 82.0649 8.87499 81.978 8.96197C81.891 9.04894 81.8224 9.15243 81.7761 9.26635C81.7298 9.38026 81.7067 9.5023 81.7083 9.62525H81.7083Z" fill="white"/>
</g>
<defs>
<clipPath id="clip0_2225_30366">
<rect width="95.6" height="32" fill="white" transform="translate(0.400391)"/>
</clipPath>
</defs>
</svg>
