<svg width="109" height="32" viewBox="0 0 109 32" fill="none" xmlns="http://www.w3.org/2000/svg">
<g clip-path="url(#clip0_2225_30365)">
<path d="M104.4 0H4.40039C2.19125 0 0.400391 1.79086 0.400391 4V28C0.400391 30.2091 2.19125 32 4.40039 32H104.4C106.61 32 108.4 30.2091 108.4 28V4C108.4 1.79086 106.61 0 104.4 0Z" fill="black"/>
<path d="M104.4 0.64C105.292 0.64 106.146 0.993999 106.776 1.62412C107.406 2.25424 107.76 3.10887 107.76 4V28C107.76 28.8911 107.406 29.7458 106.776 30.3759C106.146 31.006 105.292 31.36 104.4 31.36H4.40039C3.50926 31.36 2.65463 31.006 2.02451 30.3759C1.39439 29.7458 1.04039 28.8911 1.04039 28V4C1.04039 3.10887 1.39439 2.25424 2.02451 1.62412C2.65463 0.993999 3.50926 0.64 4.40039 0.64H104.4ZM104.4 0H4.40039C3.33952 0 2.32211 0.421427 1.57196 1.17157C0.821818 1.92172 0.400391 2.93913 0.400391 4L0.400391 28C0.400391 29.0609 0.821818 30.0783 1.57196 30.8284C2.32211 31.5786 3.33952 32 4.40039 32H104.4C105.461 32 106.479 31.5786 107.229 30.8284C107.979 30.0783 108.4 29.0609 108.4 28V4C108.4 2.93913 107.979 1.92172 107.229 1.17157C106.479 0.421427 105.461 0 104.4 0V0Z" fill="#A6A6A6"/>
<path d="M38.3366 8.19166C38.3484 8.48489 38.3013 8.77752 38.1983 9.0523C38.0953 9.32708 37.9383 9.57847 37.7366 9.79166C37.509 10.0259 37.2347 10.2096 36.9315 10.3309C36.6283 10.4522 36.3029 10.5083 35.9766 10.4957C35.6483 10.503 35.322 10.4429 35.0179 10.319C34.7138 10.1952 34.4384 10.0102 34.2086 9.77566C33.7424 9.29884 33.4814 8.65849 33.4814 7.99166C33.4814 7.32483 33.7424 6.68449 34.2086 6.20766C34.5644 5.85849 35.0158 5.62271 35.5057 5.53015C35.9956 5.43758 36.5019 5.4924 36.9606 5.68766C37.2481 5.80796 37.5051 5.99111 37.7126 6.22366L37.2886 6.64766C37.1297 6.45628 36.9284 6.30457 36.7007 6.20459C36.4729 6.1046 36.225 6.05909 35.9766 6.07166C35.4674 6.07166 34.979 6.27395 34.619 6.63402C34.2589 6.99409 34.0566 7.48245 34.0566 7.99166C34.0566 8.50088 34.2589 8.98924 34.619 9.34931C34.979 9.70938 35.4674 9.91166 35.9766 9.91166C36.4697 9.91223 36.9435 9.71986 37.2966 9.37566C37.5416 9.10812 37.6833 8.76216 37.6966 8.39966H35.9766V7.82366H38.3046C38.3232 7.94551 38.3339 8.06843 38.3366 8.19166Z" fill="white" stroke="white" stroke-width="0.2" stroke-miterlimit="10"/>
<path d="M42.0008 6.19161H39.8408V7.71161H41.8088V8.28761H39.8408V9.80761H42.0008V10.3996H39.2168V5.59961H42.0008V6.19161Z" fill="white" stroke="white" stroke-width="0.2" stroke-miterlimit="10"/>
<path d="M44.6241 10.3996H44.0081V6.19161H42.6641V5.59961H46.0001V6.19161H44.6241V10.3996Z" fill="white" stroke="white" stroke-width="0.2" stroke-miterlimit="10"/>
<path d="M48.3525 10.3996V5.59961H48.9685V10.3996H48.3525Z" fill="white" stroke="white" stroke-width="0.2" stroke-miterlimit="10"/>
<path d="M51.7041 10.3996H51.0881V6.19161H49.7441V5.59961H53.0401V6.19161H51.7041V10.3996Z" fill="white" stroke="white" stroke-width="0.2" stroke-miterlimit="10"/>
<path d="M59.2885 9.77583C59.058 10.008 58.7838 10.1923 58.4817 10.3181C58.1796 10.4439 57.8557 10.5086 57.5285 10.5086C57.2013 10.5086 56.8773 10.4439 56.5753 10.3181C56.2732 10.1923 55.999 10.008 55.7685 9.77583C55.318 9.29417 55.0674 8.65932 55.0674 7.99983C55.0674 7.34034 55.318 6.70549 55.7685 6.22383C55.9949 5.98647 56.2684 5.79908 56.5715 5.67371C56.8746 5.54834 57.2006 5.48775 57.5285 5.49583C57.856 5.49065 58.1811 5.55257 58.4838 5.67777C58.7865 5.80297 59.0603 5.98881 59.2885 6.22383C59.5189 6.45756 59.6999 6.73522 59.8209 7.04032C59.9418 7.34542 60.0002 7.67173 59.9925 7.99983C60.003 8.32829 59.9459 8.6554 59.8248 8.9609C59.7037 9.2664 59.5212 9.54377 59.2885 9.77583ZM56.2245 9.37583C56.3946 9.54612 56.5967 9.68121 56.819 9.77338C57.0414 9.86555 57.2798 9.91299 57.5205 9.91299C57.7612 9.91299 57.9996 9.86555 58.2219 9.77338C58.4443 9.68121 58.6463 9.54612 58.8165 9.37583C59.16 8.99988 59.3504 8.50906 59.3504 7.99983C59.3504 7.4906 59.16 6.99978 58.8165 6.62383C58.6463 6.45354 58.4443 6.31845 58.2219 6.22628C57.9996 6.13411 57.7612 6.08667 57.5205 6.08667C57.2798 6.08667 57.0414 6.13411 56.819 6.22628C56.5967 6.31845 56.3946 6.45354 56.2245 6.62383C55.881 6.99978 55.6905 7.4906 55.6905 7.99983C55.6905 8.50906 55.881 8.99988 56.2245 9.37583Z" fill="white" stroke="white" stroke-width="0.2" stroke-miterlimit="10"/>
<path d="M60.8643 10.3996V5.59961H61.6083L63.9443 9.33561V5.59961H64.5602V10.3996H63.9203L61.4803 6.48761V10.3996H60.8643Z" fill="white" stroke="white" stroke-width="0.2" stroke-miterlimit="10"/>
<path d="M54.9121 17.3997C54.238 17.4013 53.5796 17.6027 53.02 17.9785C52.4605 18.3543 52.0249 18.8876 51.7684 19.5109C51.512 20.1343 51.4461 20.8197 51.5791 21.4804C51.7122 22.1412 52.0382 22.7477 52.5159 23.2232C52.9937 23.6987 53.6017 24.0218 54.2631 24.1518C54.9245 24.2817 55.6095 24.2126 56.2317 23.9532C56.8538 23.6938 57.385 23.2558 57.7582 22.6944C58.1313 22.1331 58.3297 21.4738 58.3281 20.7997C58.3344 20.3595 58.254 19.9224 58.0914 19.5133C57.9288 19.1041 57.6872 18.7311 57.3803 18.4153C57.0735 18.0996 56.7075 17.8474 56.3032 17.6732C55.8989 17.4989 55.4643 17.406 55.0241 17.3997H54.9121ZM54.9121 22.8637C54.5046 22.8928 54.0977 22.8004 53.7429 22.5982C53.388 22.3959 53.1011 22.0929 52.9185 21.7275C52.736 21.3621 52.6659 20.9507 52.7173 20.5455C52.7687 20.1402 52.9391 19.7594 53.207 19.451C53.475 19.1427 53.8284 18.9209 54.2225 18.8135C54.6166 18.7062 55.0337 18.7182 55.421 18.848C55.8083 18.9779 56.1484 19.2197 56.3981 19.5429C56.6479 19.8662 56.7961 20.2562 56.8241 20.6637C56.8283 20.709 56.8283 20.7545 56.8241 20.7997C56.837 21.0582 56.7988 21.3168 56.7117 21.5605C56.6245 21.8042 56.4902 22.0284 56.3163 22.2201C56.1424 22.4118 55.9324 22.5673 55.6983 22.6778C55.4642 22.7882 55.2106 22.8514 54.9521 22.8637H54.9121ZM47.4561 17.3997C46.782 17.4013 46.1236 17.6027 45.5641 17.9785C45.0045 18.3543 44.5689 18.8876 44.3124 19.5109C44.056 20.1343 43.9901 20.8197 44.1231 21.4804C44.2562 22.1412 44.5822 22.7477 45.0599 23.2232C45.5377 23.6987 46.1457 24.0218 46.8071 24.1518C47.4685 24.2817 48.1535 24.2126 48.7757 23.9532C49.3978 23.6938 49.929 23.2558 50.3022 22.6944C50.6753 22.1331 50.8737 21.4738 50.8721 20.7997C50.885 19.9161 50.5484 19.0632 49.9357 18.4265C49.3229 17.7897 48.4835 17.4207 47.6001 17.3997H47.4561ZM47.4561 22.8637C47.0486 22.8928 46.6417 22.8004 46.2869 22.5982C45.932 22.3959 45.6451 22.0929 45.4625 21.7275C45.28 21.3621 45.2099 20.9507 45.2613 20.5455C45.3127 20.1402 45.4831 19.7594 45.751 19.451C46.019 19.1427 46.3724 18.9209 46.7665 18.8135C47.1606 18.7062 47.5777 18.7182 47.965 18.848C48.3523 18.9779 48.6924 19.2197 48.9421 19.5429C49.1919 19.8662 49.3401 20.2562 49.3681 20.6637C49.3723 20.709 49.3723 20.7545 49.3681 20.7997C49.381 21.0582 49.3428 21.3168 49.2557 21.5605C49.1685 21.8042 49.0342 22.0284 48.8603 22.2201C48.6864 22.4118 48.4764 22.5673 48.2423 22.6778C48.0082 22.7882 47.7546 22.8514 47.4961 22.8637H47.4561ZM38.5921 18.4477V19.8877H42.0481C41.9939 20.566 41.712 21.206 41.2481 21.7037C40.9005 22.0557 40.4834 22.3314 40.0233 22.5132C39.5633 22.6951 39.0704 22.779 38.5761 22.7597C38.0718 22.7597 37.5725 22.6604 37.1066 22.4674C36.6407 22.2744 36.2174 21.9916 35.8608 21.635C35.5042 21.2784 35.2214 20.8551 35.0284 20.3892C34.8354 19.9233 34.7361 19.424 34.7361 18.9197C34.7361 18.4154 34.8354 17.9161 35.0284 17.4502C35.2214 16.9843 35.5042 16.561 35.8608 16.2044C36.2174 15.8479 36.6407 15.565 37.1066 15.372C37.5725 15.179 38.0718 15.0797 38.5761 15.0797C39.5523 15.0661 40.4947 15.4367 41.2001 16.1117L42.2161 15.0957C41.7395 14.6238 41.1734 14.2518 40.5511 14.0018C39.9287 13.7518 39.2627 13.6286 38.5921 13.6397C37.1949 13.5926 35.8359 14.1007 34.8123 15.0529C33.7887 16.005 33.1838 17.3238 33.1299 18.7207C33.076 20.1177 33.5774 21.4791 34.5245 22.5073C35.4717 23.5356 36.7874 24.1469 38.1841 24.2077H38.5921C39.244 24.2452 39.8965 24.1457 40.5075 23.9155C41.1185 23.6852 41.6745 23.3295 42.1396 22.8712C42.6047 22.4129 42.9685 21.8622 43.2077 21.2546C43.4468 20.647 43.556 19.9961 43.5281 19.3437C43.5281 19.0436 43.504 18.744 43.4561 18.4477H38.5921ZM74.8401 19.5677C74.6091 18.8515 74.1282 18.2422 73.4853 17.8511C72.8423 17.46 72.0802 17.3132 71.338 17.4374C70.5957 17.5615 69.9229 17.9485 69.4423 18.5276C68.9617 19.1067 68.7053 19.8393 68.7201 20.5917C68.7161 20.661 68.7161 20.7304 68.7201 20.7997C68.7132 21.53 68.9428 22.2429 69.3746 22.8319C69.8063 23.421 70.417 23.8545 71.1155 24.0678C71.8139 24.2812 72.5627 24.2628 73.2498 24.0155C73.937 23.7682 74.5257 23.3052 74.9281 22.6957L73.7681 21.8957C73.5945 22.1834 73.3491 22.421 73.056 22.5851C72.7628 22.7492 72.432 22.8342 72.0961 22.8317C71.7491 22.8472 71.4057 22.7567 71.1113 22.5724C70.817 22.3881 70.5857 22.1186 70.4481 21.7997L75.0001 19.9197L74.8401 19.5677ZM70.2001 20.7037C70.1693 20.2088 70.3353 19.7218 70.662 19.3487C70.9886 18.9756 71.4494 18.7466 71.9441 18.7117C72.2018 18.696 72.4585 18.7567 72.6819 18.8862C72.9054 19.0157 73.0856 19.2082 73.2001 19.4397L70.2001 20.7037ZM66.5041 23.9997H68.0001V13.9997H66.5041V23.9997ZM64.0561 18.1597H64.0001C63.7746 17.9076 63.4984 17.7061 63.1896 17.5682C62.8808 17.4303 62.5463 17.3593 62.2081 17.3597C61.3338 17.4021 60.5094 17.7793 59.9057 18.413C59.3019 19.0467 58.9651 19.8884 58.9651 20.7637C58.9651 21.639 59.3019 22.4807 59.9057 23.1145C60.5094 23.7482 61.3338 24.1253 62.2081 24.1677C62.5473 24.1751 62.884 24.1072 63.1939 23.9688C63.5037 23.8305 63.7791 23.6252 64.0001 23.3677H64.0561V23.8557C64.0561 25.1597 63.3601 25.8557 62.2401 25.8557C61.8657 25.8486 61.5019 25.7298 61.1955 25.5145C60.889 25.2993 60.6539 24.9975 60.5201 24.6477L59.2241 25.1837C59.4637 25.7855 59.8803 26.3004 60.4188 26.6604C60.9573 27.0204 61.5924 27.2084 62.2401 27.1997C63.9921 27.1997 65.4401 26.1677 65.4401 23.6557V17.5997H64.0561V18.1597ZM62.3361 22.8637C61.8119 22.831 61.3199 22.5998 60.9603 22.2171C60.6007 21.8343 60.4005 21.3289 60.4005 20.8037C60.4005 20.2785 60.6007 19.7731 60.9603 19.3904C61.3199 19.0077 61.8119 18.7764 62.3361 18.7437C62.5869 18.754 62.8332 18.8138 63.0608 18.9196C63.2885 19.0254 63.4929 19.1752 63.6624 19.3603C63.8319 19.5455 63.9632 19.7623 64.0486 19.9983C64.134 20.2344 64.1719 20.485 64.1601 20.7357V20.7997C64.2022 21.3025 64.043 21.8014 63.7175 22.1869C63.392 22.5724 62.9268 22.813 62.4241 22.8557L62.3361 22.8637ZM81.8481 13.9997H78.2641V23.9997H79.7601V20.2077H81.8481C82.6713 20.2671 83.4844 19.9971 84.1085 19.457C84.7327 18.9169 85.1167 18.151 85.1761 17.3277C85.2355 16.5045 84.9654 15.6914 84.4253 15.0673C83.8852 14.4431 83.1193 14.0591 82.2961 13.9997C82.1469 13.9917 81.9973 13.9917 81.8481 13.9997ZM81.8481 18.7997H79.7601V15.3917H81.8801C82.3341 15.3917 82.7696 15.5721 83.0906 15.8932C83.4117 16.2142 83.5921 16.6497 83.5921 17.1037C83.5921 17.5578 83.4117 17.9932 83.0906 18.3143C82.7696 18.6354 82.3341 18.8157 81.8801 18.8157L81.8481 18.7997ZM91.0801 17.3677C90.5326 17.3309 89.9865 17.4562 89.5099 17.728C89.0332 17.9997 88.6472 18.4059 88.4001 18.8957L89.7201 19.4477C89.8989 19.1828 90.151 18.9756 90.4455 18.8514C90.74 18.7272 91.0643 18.6913 91.3788 18.7481C91.6934 18.8049 91.9846 18.9519 92.2171 19.1713C92.4495 19.3907 92.6132 19.673 92.6881 19.9837V20.1037C92.2075 19.8496 91.6717 19.7178 91.1281 19.7197C89.7041 19.7197 88.2481 20.5197 88.2481 21.9757C88.2751 22.5862 88.5427 23.1612 88.9925 23.575C89.4422 23.9887 90.0374 24.2076 90.6481 24.1837H90.7201C91.1016 24.2104 91.4833 24.1329 91.8242 23.9596C92.1652 23.7863 92.4527 23.5237 92.6561 23.1997H92.7041V23.9997H94.1441V20.1517C94.1441 18.3997 92.8161 17.3837 91.1121 17.3837L91.0801 17.3677ZM90.8961 22.8477C90.4081 22.8477 89.7281 22.5997 89.7281 21.9997C89.7281 21.1997 90.5761 20.9277 91.3281 20.9277C91.8031 20.9183 92.2721 21.0342 92.6881 21.2637C92.6378 21.6982 92.4318 22.0997 92.1082 22.3939C91.7846 22.6881 91.3653 22.855 90.9281 22.8637L90.8961 22.8477ZM99.3921 17.5997L97.6801 21.9357H97.6321L95.8561 17.5997H94.2561L96.9201 23.6637L95.4001 27.0317H97.0001L101.056 17.5997H99.3921ZM85.9521 23.9997H87.4401V13.9997H85.9521V23.9997Z" fill="white"/>
<path d="M8.75253 6.03159C8.49752 6.34683 8.37171 6.74714 8.40053 7.15159V24.8476C8.37331 25.2559 8.50845 25.6584 8.77653 25.9676L8.83253 26.0316L18.7205 16.1196V15.8796L8.80853 5.97559L8.75253 6.03159Z" fill="url(#paint0_linear_2225_30365)"/>
<path d="M22.0007 19.4242L18.7207 16.1202V15.8802L22.0007 12.5762L22.0727 12.6242L26.0007 14.8482C27.1207 15.4802 27.1207 16.5202 26.0007 17.1602L22.0887 19.3842L22.0007 19.4242Z" fill="url(#paint1_linear_2225_30365)"/>
<path d="M22.096 19.376L18.72 16L8.75195 25.968C8.97801 26.1692 9.26737 26.285 9.56983 26.2952C9.8723 26.3054 10.1688 26.2095 10.408 26.024L22.096 19.376Z" fill="url(#paint2_linear_2225_30365)"/>
<path d="M22.096 12.6237L10.408 5.98371C10.171 5.79412 9.87445 5.69487 9.57114 5.70366C9.26783 5.71245 8.9775 5.82872 8.75195 6.03171L18.72 15.9997L22.096 12.6237Z" fill="url(#paint3_linear_2225_30365)"/>
<path opacity="0.2" d="M22 19.3037L10.408 25.9037C10.178 26.0789 9.89699 26.1738 9.60795 26.1738C9.31891 26.1738 9.03786 26.0789 8.80795 25.9037L8.75195 25.9597L8.80795 26.0237C9.03786 26.1989 9.31891 26.2938 9.60795 26.2938C9.89699 26.2938 10.178 26.1989 10.408 26.0237L22.096 19.3757L22 19.3037Z" fill="black"/>
<path opacity="0.12" d="M8.7521 25.8555C8.49513 25.5382 8.3692 25.1347 8.4001 24.7275V24.8475C8.37288 25.2558 8.50801 25.6584 8.7761 25.9675L8.8321 25.9115L8.7521 25.8555Z" fill="black"/>
<path opacity="0.12" d="M26 17.04L22 19.304L22.072 19.376L26 17.152C26.2324 17.0547 26.434 16.8961 26.5833 16.6933C26.7326 16.4904 26.8241 16.2508 26.848 16C26.798 16.2277 26.6952 16.4404 26.5479 16.621C26.4006 16.8017 26.2129 16.9452 26 17.04Z" fill="black"/>
<path opacity="0.25" d="M10.4084 6.09618L26.0004 14.9602C26.2133 15.055 26.401 15.1985 26.5483 15.3792C26.6956 15.5598 26.7984 15.7725 26.8484 16.0002C26.8245 15.7494 26.733 15.5098 26.5837 15.3069C26.4343 15.104 26.2328 14.9455 26.0004 14.8482L10.4084 5.98418C9.29639 5.34418 8.40039 5.87218 8.40039 7.15218V7.27218C8.40039 5.99218 9.29639 5.46418 10.4084 6.09618Z" fill="white"/>
</g>
<defs>
<linearGradient id="paint0_linear_2225_30365" x1="17.8405" y1="6.96759" x2="4.41653" y2="20.3916" gradientUnits="userSpaceOnUse">
<stop stop-color="#00A0FF"/>
<stop offset="0.01" stop-color="#00A1FF"/>
<stop offset="0.26" stop-color="#00BEFF"/>
<stop offset="0.51" stop-color="#00D2FF"/>
<stop offset="0.76" stop-color="#00DFFF"/>
<stop offset="1" stop-color="#00E3FF"/>
</linearGradient>
<linearGradient id="paint1_linear_2225_30365" x1="27.4647" y1="16.0002" x2="8.1127" y2="16.0002" gradientUnits="userSpaceOnUse">
<stop stop-color="#FFE000"/>
<stop offset="0.41" stop-color="#FFBD00"/>
<stop offset="0.78" stop-color="#FFA500"/>
<stop offset="1" stop-color="#FF9C00"/>
</linearGradient>
<linearGradient id="paint2_linear_2225_30365" x1="20.256" y1="17.832" x2="2.04795" y2="36.032" gradientUnits="userSpaceOnUse">
<stop stop-color="#FF3A44"/>
<stop offset="1" stop-color="#C31162"/>
</linearGradient>
<linearGradient id="paint3_linear_2225_30365" x1="6.23995" y1="0.143707" x2="14.368" y2="8.27171" gradientUnits="userSpaceOnUse">
<stop stop-color="#32A071"/>
<stop offset="0.07" stop-color="#2DA771"/>
<stop offset="0.48" stop-color="#15CF74"/>
<stop offset="0.8" stop-color="#06E775"/>
<stop offset="1" stop-color="#00F076"/>
</linearGradient>
<clipPath id="clip0_2225_30365">
<rect width="108" height="32" fill="white" transform="translate(0.400391)"/>
</clipPath>
</defs>
</svg>
