<svg width="53" height="17" viewBox="0 0 53 17" fill="none" xmlns="http://www.w3.org/2000/svg">
<path d="M4.2229 7.25586V16H0.602783V4.37695H3.98657L4.2229 7.25586ZM7.6604 4.29102L7.59595 7.65332C7.45272 7.639 7.25936 7.62109 7.01587 7.59961C6.77238 7.57812 6.56828 7.56738 6.40356 7.56738C5.98104 7.56738 5.6158 7.61751 5.30786 7.71777C5.00708 7.81087 4.75643 7.9541 4.55591 8.14746C4.36255 8.33366 4.21932 8.56999 4.12622 8.85645C4.04028 9.1429 4.0009 9.47591 4.00806 9.85547L3.35278 9.42578C3.35278 8.64518 3.42798 7.9362 3.57837 7.29883C3.73592 6.6543 3.95793 6.09928 4.24438 5.63379C4.53084 5.16113 4.87817 4.79948 5.28638 4.54883C5.69458 4.29102 6.15291 4.16211 6.66138 4.16211C6.84041 4.16211 7.01587 4.17285 7.18774 4.19434C7.36678 4.21582 7.52433 4.24805 7.6604 4.29102ZM22.1409 0.359375V16H18.3811L12.8489 6.26758V16H9.07837V0.359375H12.8489L18.3811 10.0918V0.359375H22.1409ZM28.2961 0.359375V16H24.5256V0.359375H28.2961ZM34.3762 6.86914V9.76953H27.2219V6.86914H34.3762ZM34.9885 0.359375V3.27051H27.2219V0.359375H34.9885ZM44.345 0.359375V16H40.5745V0.359375H44.345ZM49.05 0.359375V3.27051H35.9768V0.359375H49.05Z" fill="url(#paint0_linear_3148_23755)"/>
<path d="M50.4973 15.2344C50.4973 14.9896 50.5728 14.7839 50.7239 14.6172C50.8801 14.4453 51.1041 14.3594 51.3958 14.3594C51.6874 14.3594 51.9088 14.4453 52.0598 14.6172C52.2161 14.7839 52.2942 14.9896 52.2942 15.2344C52.2942 15.474 52.2161 15.6771 52.0598 15.8438C51.9088 16.0104 51.6874 16.0938 51.3958 16.0938C51.1041 16.0938 50.8801 16.0104 50.7239 15.8438C50.5728 15.6771 50.4973 15.474 50.4973 15.2344ZM50.5051 8.33594C50.5051 8.09115 50.5806 7.88542 50.7317 7.71875C50.8879 7.54688 51.1119 7.46094 51.4036 7.46094C51.6952 7.46094 51.9166 7.54688 52.0676 7.71875C52.2239 7.88542 52.302 8.09115 52.302 8.33594C52.302 8.57552 52.2239 8.77865 52.0676 8.94531C51.9166 9.11198 51.6952 9.19531 51.4036 9.19531C51.1119 9.19531 50.8879 9.11198 50.7317 8.94531C50.5806 8.77865 50.5051 8.57552 50.5051 8.33594Z" fill="white"/>
<defs>
<linearGradient id="paint0_linear_3148_23755" x1="-0.666748" y1="-5" x2="56.2299" y2="5.95241" gradientUnits="userSpaceOnUse">
<stop stop-color="#6720F8"/>
<stop offset="0.505208" stop-color="#F6C944"/>
<stop offset="1" stop-color="#1EF6DF"/>
</linearGradient>
</defs>
</svg>
