<svg width="92" height="109" viewBox="0 0 92 109" fill="none" xmlns="http://www.w3.org/2000/svg">
<g clip-path="url(#clip0_1277_4439)">
<path d="M46.0379 10.1859C57.3584 10.1851 68.2823 14.3166 76.7225 21.7909C85.1626 29.2653 90.5273 39.5585 91.7913 50.7038C91.9772 49.0124 92.0722 47.3124 92.0758 45.6109C92.0832 39.4019 90.8109 33.2568 88.3368 27.5521C85.8628 21.8474 82.2392 16.7031 77.6879 12.4346C73.1367 8.16604 67.7537 4.86308 61.8687 2.72803C55.9838 0.592977 49.7208 -0.329185 43.4634 0.0180317C37.2061 0.365248 31.0862 1.97453 25.4787 4.74729C19.8712 7.52006 14.8941 11.3979 10.8525 16.1432C6.81085 20.8886 3.7897 26.4016 1.97415 32.3443C0.158593 38.2871 -0.413135 44.5345 0.293992 50.7038C1.55786 39.5601 6.92112 29.2682 15.3593 21.7941C23.7974 14.3199 34.7191 10.1874 46.0379 10.1859Z" fill="white" fill-opacity="0.4"/>
<path d="M46.0379 78.6398C49.4973 78.6384 52.9119 77.8649 56.0282 76.3767C59.1444 74.8885 61.8822 72.7238 64.0382 70.0435C66.1941 67.3632 67.7129 64.2361 68.4815 60.8945C69.2502 57.5528 69.2491 54.0826 68.4783 50.7414C67.3129 55.7723 64.4593 60.2627 60.3839 63.4786C56.3086 66.6944 51.2527 68.4455 46.0426 68.4455C40.8326 68.4455 35.7767 66.6944 31.7014 63.4786C27.626 60.2627 24.7724 55.7723 23.607 50.7414C22.8288 54.0825 22.8221 57.5544 23.5873 60.8984C24.3525 64.2424 25.8698 67.3721 28.0262 70.054C30.1825 72.736 32.9222 74.901 36.041 76.3876C39.1597 77.8742 42.577 78.6441 46.0379 78.6398Z" fill="white" fill-opacity="0.4"/>
<path d="M26.6325 50.7601H1.69767C1.37519 51.9065 1.09067 53.0623 0.863037 54.2463H24.783C25.2949 53.0326 25.9138 51.8661 26.6325 50.7601Z" fill="white" fill-opacity="0.6"/>
<path d="M46.038 17.3931C42.5259 17.3981 39.0258 17.7984 35.605 18.5864H56.5374C53.0948 17.7944 49.5722 17.394 46.038 17.3931Z" fill="white" fill-opacity="0.6"/>
<path d="M46.0378 108.615C52.847 108.623 59.5728 107.131 65.7277 104.245H26.3574C32.509 107.131 39.2317 108.623 46.0378 108.615Z" fill="white" fill-opacity="0.6"/>
<path d="M67.3024 54.2086H91.2224C90.9947 53.0247 90.7102 51.8689 90.3877 50.7225H65.4529C66.1716 51.8285 66.7905 52.995 67.3024 54.2086Z" fill="white" fill-opacity="0.6"/>
<path d="M91.9052 59.6681C92.0095 58.3901 92.0759 57.1028 92.0759 55.7967C92.0725 54.0953 91.9775 52.3952 91.7914 50.7038C91.6187 52.2188 91.3686 53.7242 91.0421 55.2141H67.7101C68.1135 56.3511 68.4306 57.5164 68.6586 58.7002H90.1505C90.0557 59.0291 89.9419 59.3486 89.8375 59.6399H68.8103C68.9743 60.7444 69.0567 61.8593 69.0569 62.9757V63.1354H88.5761C88.4433 63.4549 88.301 63.7744 88.1588 64.0751H69.0285C68.9702 65.2462 68.8244 66.4114 68.5922 67.5612H86.3567C86.1765 67.8807 85.9963 68.2095 85.8066 68.5008H68.3645C68.0617 69.6941 67.6588 70.8602 67.16 71.987H83.5303C83.2932 72.3159 83.0466 72.6353 82.8095 72.9266H66.7617C66.1543 74.1531 65.4369 75.3229 64.6181 76.4221H79.9167C79.6132 76.751 79.3002 77.0705 78.9682 77.3618H63.793C62.7149 78.6492 61.5002 79.8179 60.1699 80.8479H75.0701C74.6623 81.1768 74.2449 81.4963 73.8276 81.7876H58.8515C56.2141 83.5414 53.2353 84.7289 50.1068 85.2737H68.4783C67.8713 85.612 67.2548 85.9314 66.6383 86.2133H25.447C24.8305 85.9032 24.214 85.5838 23.607 85.2737H41.9785C38.8501 84.7289 35.8713 83.5414 33.2338 81.7876H18.2388C17.812 81.4681 17.4041 81.1486 16.9963 80.8479H31.8965C30.5662 79.8179 29.3515 78.6492 28.2734 77.3618H13.1456L12.1971 76.4221H27.5052C26.6864 75.3229 25.969 74.1531 25.3617 72.9266H9.23794C8.99135 72.6071 8.75422 72.2877 8.51711 71.987H24.8779C24.3864 70.8583 23.9868 69.6926 23.6829 68.5008H6.23133L5.69072 67.5612H23.4553C23.2154 66.4124 23.0663 65.2468 23.0095 64.0751H3.97402L3.54722 63.1354H23.0285C23.0285 63.079 23.0285 63.032 23.0285 62.9757C23.0286 61.8593 23.111 60.7444 23.275 59.6399H2.2668C2.16247 59.3204 2.05814 59.0009 1.96329 58.7002H23.4553C23.6743 57.5144 23.9915 56.3484 24.4037 55.2141H1.0433C0.716759 53.7242 0.466671 52.2188 0.294018 50.7038C0.0999319 52.3946 0.00177307 54.0949 0 55.7967C0 57.1028 0.0663941 58.3901 0.180209 59.6681C0.0948477 60.7675 0.0379318 61.8857 0.0379318 63.0038C0.0379318 63.0602 0.0379318 63.1072 0.0379318 63.1636H0.635462C0.692369 63.4831 0.749279 63.8026 0.815671 64.1033H0.0569049C0.0569049 65.2684 0.151751 66.443 0.265566 67.5894H1.60289C1.68825 67.9182 1.78309 68.2377 1.87793 68.529H0.369896C0.512164 69.7036 0.692367 70.8688 0.92948 72.0152H3.04454C3.16784 72.344 3.30062 72.6635 3.42392 72.9548H1.14764C1.4132 74.1388 1.71671 75.304 2.09609 76.4503H5.08371C5.24495 76.7698 5.40619 77.0987 5.57691 77.39H2.42804C2.82639 78.574 3.27217 79.7391 3.76536 80.8761H7.70144C7.91958 81.205 8.14722 81.5245 8.37485 81.8158H4.16371C4.71381 83.0091 5.32082 84.1743 5.96577 85.3019H11.0779C11.353 85.6307 11.628 85.9596 11.9221 86.2415H6.52537C7.25251 87.4443 8.03341 88.6095 8.86805 89.737H15.5072C15.8771 90.0659 16.2565 90.3854 16.6359 90.6767H9.6268C10.5753 91.892 11.5806 93.054 12.6429 94.1628H21.492C22.0231 94.5011 22.5637 94.8206 23.1043 95.1025H13.6198C14.8798 96.3384 16.2098 97.5024 17.6033 98.5886H30.7204C31.7447 98.9551 32.788 99.2746 33.8503 99.5283H18.8268C20.6041 100.826 22.4743 101.995 24.4227 103.024H67.7101C69.6585 101.995 71.5287 100.826 73.306 99.5283H58.2256C59.2878 99.2464 60.3217 98.9269 61.3555 98.5886H74.5485C75.945 97.5024 77.2782 96.3385 78.5414 95.1025H68.9905C69.5406 94.7924 70.0812 94.4729 70.6124 94.1628H79.452C80.521 93.0537 81.5309 91.8901 82.4775 90.6767H75.4684L76.5876 89.737H83.2268C84.052 88.6095 84.8392 87.4443 85.5695 86.2415H80.1728C80.4573 85.9314 80.7419 85.6026 81.0169 85.3019H86.1291C86.774 84.1743 87.3715 83.0091 87.9216 81.8158H83.7579C83.9761 81.4963 84.2037 81.1768 84.4219 80.8761H88.3674C88.8606 79.7391 89.3159 78.574 89.7047 77.39H86.5559C86.7266 77.0705 86.8878 76.7416 87.0491 76.4503H90.0272C90.3876 75.304 90.6911 74.1388 90.9757 72.9548H88.6899C88.8227 72.6353 88.9555 72.3158 89.0788 72.0152H91.1938C91.4309 70.8688 91.6111 69.7036 91.7534 68.529H90.2643C90.3592 68.2095 90.454 67.8901 90.5394 67.5894H91.8767C91.9905 66.443 92.0474 65.2684 92.0759 64.1033H91.3266C91.3835 63.7744 91.4499 63.4549 91.5068 63.1636H92.1043V63.0038C92.1043 61.8857 92.0569 60.7675 91.9715 59.6681H91.9052ZM51.6812 90.8552H40.4041C38.5981 90.6435 36.8058 90.3298 35.0359 89.9156H57.0495C55.2796 90.3298 53.4872 90.6435 51.6812 90.8552Z" fill="white" fill-opacity="0.6"/>
<path d="M23.607 50.6004C23.6734 50.2903 23.7777 49.9896 23.8536 49.6608H27.287C28.1963 48.3954 29.2322 47.2243 30.379 46.1652H25.134C25.2858 45.8458 25.428 45.5169 25.5893 45.2256H31.4887C33.2939 43.775 35.3079 42.6 37.4639 41.7395H27.8751C28.1311 41.4106 28.3967 41.0911 28.6717 40.7998H40.48C44.1454 39.8977 47.9779 39.8977 51.6433 40.7998H63.4515C63.7266 41.1193 63.9922 41.4388 64.2483 41.7395H54.6214C56.7755 42.5979 58.7867 43.7732 60.5872 45.2256H66.4961C66.6573 45.5451 66.7996 45.8739 66.9513 46.1652H61.7064C62.8532 47.2243 63.8891 48.3954 64.7983 49.6608H68.2223C68.3076 49.9614 68.4025 50.2621 68.4783 50.6004C68.5447 50.2997 68.6016 49.9896 68.6586 49.6608H90.1126C89.7522 48.4768 89.3349 47.3116 88.8796 46.1652H69.0379C69.0379 45.9397 69.0379 45.7048 69.0379 45.4793V45.1974H88.4812C87.9691 44.0134 87.4095 42.8483 86.8025 41.7113H68.7439C68.687 41.3824 68.6301 41.0629 68.5637 40.7716H86.2998C85.6264 39.5783 84.9056 38.4131 84.1373 37.2855H67.5109C67.3876 36.9566 67.2548 36.6371 67.1126 36.3459H83.4449C82.5597 35.1306 81.6113 33.9654 80.5996 32.8503H65.1398C64.9122 32.5215 64.6845 32.202 64.4474 31.9107H79.727C78.567 30.6848 77.3417 29.5211 76.0565 28.4246H61.2227C60.8338 28.0863 60.4355 27.7668 60.0371 27.4849H74.9373C73.3527 26.2121 71.6828 25.0474 69.939 23.9988H53.4833C52.1693 23.5603 50.8165 23.2457 49.4429 23.0591H68.2981C65.6909 21.6332 62.9495 20.4625 60.113 19.5636H32.0103C29.1768 20.4625 26.4386 21.6333 23.8346 23.0591H42.6804C41.3101 23.2468 39.9605 23.5614 38.6495 23.9988H22.1843C20.4451 25.0497 18.7784 26.2144 17.1955 27.4849H32.0482C31.6404 27.795 31.2515 28.1145 30.8627 28.4246H15.9814C14.7015 29.5236 13.4795 30.6871 12.3204 31.9107H27.6C27.3629 32.2302 27.1353 32.5496 26.9076 32.8503H11.4478C10.452 33.9685 9.55092 35.1337 8.60247 36.3459H24.9348C24.7926 36.6653 24.6598 36.9848 24.5365 37.2855H7.95753C7.17979 38.4131 6.46845 39.5783 5.79505 40.7716H23.5311C23.4647 41.0911 23.4078 41.4106 23.3509 41.7113H5.26392C4.65691 42.8483 4.09732 44.0134 3.58515 45.1974H23.0285C23.0285 45.2914 23.0285 45.3853 23.0285 45.4793C23.0285 45.5733 23.0285 45.9397 23.0285 46.1652H3.21526C2.76 47.3116 2.34268 48.4768 1.98226 49.6608H23.4173C23.4742 49.9896 23.5406 50.3467 23.607 50.6004ZM33.9357 36.3177H58.1497C58.6429 36.6184 59.0981 36.9378 59.5913 37.2573H32.4845C32.9588 36.9378 33.4425 36.6184 33.9357 36.3177Z" fill="white" fill-opacity="0.6"/>
<path d="M46.0379 91.2218C57.3578 91.2205 68.2806 87.0883 76.7203 79.6143C85.16 72.1404 90.5252 61.8483 91.7913 50.7038C90.5245 39.5615 85.1594 29.2718 76.7205 21.8001C68.2816 14.3283 57.3604 10.198 46.0426 10.198C34.7248 10.198 23.8036 14.3283 15.3647 21.8001C6.92585 29.2718 1.5607 39.5615 0.293945 50.7038C1.55982 61.8467 6.92366 72.1375 15.3614 79.6112C23.7991 87.085 34.7196 91.2182 46.0379 91.2218ZM23.0189 45.6109C23.0206 42.4008 23.7063 39.2273 25.0312 36.2978C26.3561 33.3684 28.2903 30.7491 30.7073 28.6112C33.1242 26.4733 35.9695 24.865 39.0571 23.8915C42.1446 22.918 45.4048 22.6012 48.6244 22.9619C51.844 23.3226 54.9505 24.3527 57.7406 25.9847C60.5307 27.6166 62.9417 29.8138 64.8158 32.4325C66.6898 35.0511 67.9848 38.0322 68.6159 41.1808C69.247 44.3293 69.2001 47.5744 68.4783 50.7038C69.2595 54.0487 69.2687 57.5251 68.5051 60.8739C67.7416 64.2228 66.225 67.3578 64.0684 70.0452C61.9118 72.7326 59.1709 74.9032 56.0498 76.3951C52.9287 77.887 49.508 78.6619 46.0426 78.6619C42.5772 78.6619 39.1565 77.887 36.0354 76.3951C32.9144 74.9032 30.1734 72.7326 28.0168 70.0452C25.8602 67.3578 24.3436 64.2228 23.5801 60.8739C22.8165 57.5251 22.8257 54.0487 23.6069 50.7038C23.2184 49.0334 23.0212 47.325 23.0189 45.6109Z" fill="white"/>
</g>
<defs>
<clipPath id="clip0_1277_4439">
<rect width="92" height="109" fill="white"/>
</clipPath>
</defs>
</svg>
