<svg xmlns="http://www.w3.org/2000/svg" fill="none" viewBox="0 0 20 20"><path fill="#fff" d="M18.905.244a.19.19 0 0 0-.142-.147c-2.354-.576-7.791 1.476-10.737 4.424a12.746 12.746 0 0 0-1.432 1.693c-.908-.08-1.816-.013-2.59.324-2.185.963-2.821 3.474-2.999 4.554a.388.388 0 0 0 .424.45l3.508-.387c.003.265.019.53.048.792a.786.786 0 0 0 .23.483l1.358 1.356c.129.13.3.212.482.23.261.029.524.045.787.047l-.385 3.507a.388.388 0 0 0 .45.425c1.077-.173 3.59-.81 4.546-2.997.338-.774.407-1.68.329-2.584a12.778 12.778 0 0 0 1.696-1.433c2.955-2.943 4.994-8.264 4.427-10.737ZM11.53 7.47a1.932 1.932 0 0 1 1.363-3.296 1.927 1.927 0 0 1 1.891 2.307 1.931 1.931 0 0 1-2.629 1.407 1.928 1.928 0 0 1-.625-.418Z"/></svg>