<svg width="24" height="24" viewBox="0 0 24 24" fill="none" xmlns="http://www.w3.org/2000/svg">
<path fill-rule="evenodd" clip-rule="evenodd" d="M12.9357 11.625L20.2803 18.9697C20.5732 19.2626 20.5732 19.7374 20.2803 20.0303C19.9874 20.3232 19.5126 20.3232 19.2197 20.0303L11.75 12.5607L4.28033 20.0303C3.98744 20.3232 3.51256 20.3232 3.21967 20.0303C2.92678 19.7374 2.92678 19.2626 3.21967 18.9697L10.5643 11.625L3.21967 4.28033C2.92678 3.98744 2.92678 3.51256 3.21967 3.21967C3.51256 2.92678 3.98744 2.92678 4.28033 3.21967L11.75 10.6893L19.2197 3.21967C19.5126 2.92678 19.9874 2.92678 20.2803 3.21967C20.5732 3.51256 20.5732 3.98744 20.2803 4.28033L12.9357 11.625Z" fill="white"/>
</svg>
