<svg xmlns="http://www.w3.org/2000/svg" fill="#fff" viewBox="0 0 24 24"><path d="M10.667 12.889H4.444c-.266 0-.444.178-.444.444v6.223c0 .266.178.444.444.444h6.223c.266 0 .444-.178.444-.444v-6.223c0-.266-.178-.444-.444-.444Zm-.445 6.222H4.89v-5.333h5.333v5.333ZM10.667 4H4.444C4.178 4 4 4.178 4 4.444v6.223c0 .266.178.444.444.444h6.223c.266 0 .444-.178.444-.444V4.444c0-.266-.178-.444-.444-.444Zm-.445 6.222H4.89V4.89h5.333v5.333ZM19.556 4h-6.223c-.266 0-.444.178-.444.444v6.223c0 .266.178.444.444.444h6.223c.266 0 .444-.178.444-.444V4.444c0-.266-.178-.444-.444-.444Zm-.445 6.222h-5.333V4.89h5.333v5.333ZM19.556 16h-2.667v-2.667c0-.266-.178-.444-.445-.444-.266 0-.444.178-.444.444V16h-2.667c-.266 0-.444.178-.444.444 0 .267.178.445.444.445H16v2.667c0 .266.178.444.444.444.267 0 .445-.178.445-.444v-2.667h2.667c.266 0 .444-.178.444-.445 0-.266-.178-.444-.444-.444Z"/></svg>