<svg xmlns="http://www.w3.org/2000/svg" fill="#fff" viewBox="0 0 24 24"><path d="M8.5 4.5a5.26 5.26 0 0 0-5.25 5.25c0 1.807.923 3.412 2.32 4.36C2.896 15.257 1 17.912 1 21h1.5c0-3.323 2.678-6 6-6s6 2.677 6 6H16c0-3.088-1.895-5.742-4.57-6.891a5.268 5.268 0 0 0 2.32-4.359A5.26 5.26 0 0 0 8.5 4.5Zm0 1.5c2.08 0 3.75 1.67 3.75 3.75S10.58 13.5 8.5 13.5s-3.75-1.67-3.75-3.75S6.42 6 8.5 6Z"/><path fill-rule="evenodd" d="m23.535 8.172-3.181 3.182a.5.5 0 0 1-.708 0l-3.181-3.182a.5.5 0 1 1 .707-.708L19.5 9.793V3h1v6.793l2.328-2.329a.5.5 0 1 1 .707.708Z" clip-rule="evenodd"/></svg>