<svg xmlns="http://www.w3.org/2000/svg" fill="#fff" viewBox="0 0 24 24"><mask id="a"><path d="M7 21H3v-4l2-2 9-9 1-1a2.828 2.828 0 1 1 4 4l-1 1-9 9-2 2Z"/></mask><path d="m13.505 6.495 4 4 .99-.99-4-4-.99.99Zm-9 9 4 4 .99-.99-4-4-.99.99ZM3 21H1.6v1.4H3V21Zm4 0v1.4h.58l.41-.41L7 21Zm-4-4-.99-.99-.41.41V17H3ZM14 6l-.99-.99L14 6Zm5 3 .99.99L19 9Zm-4-4 .99.99L15 5Zm4 0-.99.99L19 5ZM3 22.4h4v-2.8H3v2.8ZM4.4 21v-4H1.6v4h2.8ZM18.01 8.01l-1 1 1.98 1.98 1-1-1.98-1.98Zm-3.02-1.02 1-1-1.98-1.98-1 1 1.98 1.98Zm-11 11 2-2-1.98-1.98-2 2 1.98 1.98Zm2-2 9-9-1.98-1.98-9 9 1.98 1.98Zm2 6 2-2-1.98-1.98-2 2 1.98 1.98Zm2-2 9-9-1.98-1.98-9 9 1.98 1.98Zm6-14a1.429 1.429 0 0 1 2.02 0l1.98-1.98a4.229 4.229 0 0 0-5.98 0l1.98 1.98Zm4 4a4.228 4.228 0 0 0 0-5.98l-1.98 1.98a1.428 1.428 0 0 1 0 2.02l1.98 1.98Z" mask="url(#a)"/></svg>