<svg fill="none" xmlns="http://www.w3.org/2000/svg" viewBox="0 0 16 20"><path d="M9.002.275A.661.661 0 0 1 9.532 0h3.937c.174 0 .34.071.464.198a.685.685 0 0 1 .192.477V4.05a.698.698 0 0 1-.009.108c.277.232.5.524.652.856.153.332.232.694.232 1.061v9.45c0 .325-.062.647-.183.947-.121.3-.298.573-.522.803-.223.23-.489.412-.78.537a2.349 2.349 0 0 1-.921.188H3.406c-.638 0-1.25-.26-1.701-.725A2.511 2.511 0 0 1 1 15.525v-9.45c0-.325.062-.647.183-.947.121-.3.298-.573.522-.803A2.373 2.373 0 0 1 3.406 3.6h.656v-.225c0-.418-.16-.818-.448-1.114A1.51 1.51 0 0 0 2.531 1.8h-.875a.647.647 0 0 1-.464-.198.685.685 0 0 1 0-.954.647.647 0 0 1 .464-.198h.875c.754 0 1.478.308 2.011.857.533.548.833 1.292.833 2.068V3.6h1.257L9.002.275Zm3.81 1.075H9.864L8.26 3.6h4.334c.073 0 .147.004.219.01V1.35Zm-8.12 6.048a.685.685 0 0 0 0 .954l2.38 2.448-2.38 2.448a.675.675 0 0 0-.208.482.692.692 0 0 0 .192.49.655.655 0 0 0 .475.197.64.64 0 0 0 .469-.215L8 11.754l2.38 2.448a.657.657 0 0 0 .468.215.64.64 0 0 0 .476-.198.676.676 0 0 0 .192-.49.693.693 0 0 0-.209-.481L8.927 10.8l2.38-2.448a.675.675 0 0 0 .21-.482.693.693 0 0 0-.193-.49.656.656 0 0 0-.476-.197.64.64 0 0 0-.468.215L8 9.846 5.62 7.398a.647.647 0 0 0-.928 0Z" fill="#fff"/></svg>