<svg width="24" height="24" viewBox="0 0 24 24" fill="none" xmlns="http://www.w3.org/2000/svg">
<g filter="url(#filter0_d_2309_28005)">
<path d="M13.0019 2.2754C13.0629 2.18996 13.1426 2.12051 13.2346 2.07266C13.3266 2.02482 13.4282 1.99992 13.5312 2H17.4687C17.6428 2 17.8097 2.07112 17.9328 2.1977C18.0559 2.32429 18.125 2.49598 18.125 2.675V6.05C18.1249 6.08618 18.1219 6.12229 18.1162 6.158C18.3928 6.38991 18.6156 6.68231 18.7685 7.01391C18.9213 7.34552 19.0004 7.708 19 8.075V17.525C19 17.85 18.9378 18.1719 18.8168 18.4721C18.6959 18.7724 18.5187 19.0453 18.2952 19.2751C18.0718 19.5049 17.8065 19.6872 17.5146 19.8116C17.2226 19.936 16.9097 20 16.5937 20H7.40625C6.76807 20 6.15603 19.7392 5.70477 19.2751C5.25351 18.8109 5 18.1814 5 17.525V8.075C5 7.74998 5.06224 7.42814 5.18317 7.12786C5.30409 6.82758 5.48133 6.55474 5.70477 6.32491C6.15603 5.86076 6.76807 5.6 7.40625 5.6H8.0625V5.375C8.0625 4.95728 7.90117 4.55668 7.61401 4.26131C7.32684 3.96594 6.93736 3.8 6.53125 3.8H5.65625C5.4822 3.8 5.31528 3.72888 5.19221 3.6023C5.06914 3.47571 5 3.30402 5 3.125C5 2.94598 5.06914 2.77429 5.19221 2.6477C5.31528 2.52112 5.4822 2.45 5.65625 2.45H6.53125C7.28546 2.45 8.00878 2.75817 8.54208 3.30671C9.07539 3.85526 9.375 4.59924 9.375 5.375V5.6H10.6324L13.0019 2.2754ZM16.8125 3.35H13.8637L12.2599 5.6H16.5937C16.6672 5.6 16.7407 5.6036 16.8125 5.6099V3.35ZM8.6925 9.398C8.56961 9.52456 8.50058 9.69612 8.50058 9.875C8.50058 10.0539 8.56961 10.2254 8.6925 10.352L11.0725 12.8L8.6925 15.248C8.62802 15.3098 8.57631 15.3843 8.54044 15.4671C8.50457 15.5499 8.48529 15.6393 8.48373 15.7299C8.48218 15.8206 8.49839 15.9106 8.53139 15.9946C8.5644 16.0787 8.61352 16.155 8.67584 16.2191C8.73816 16.2832 8.81239 16.3338 8.8941 16.3677C8.97582 16.4017 9.06334 16.4183 9.15146 16.4167C9.23957 16.4151 9.32647 16.3953 9.40697 16.3584C9.48747 16.3215 9.55992 16.2683 9.62 16.202L12 13.754L14.38 16.202C14.4401 16.2683 14.5125 16.3215 14.593 16.3584C14.6735 16.3953 14.7604 16.4151 14.8485 16.4167C14.9367 16.4183 15.0242 16.4017 15.1059 16.3677C15.1876 16.3338 15.2618 16.2832 15.3242 16.2191C15.3865 16.155 15.4356 16.0787 15.4686 15.9946C15.5016 15.9106 15.5178 15.8206 15.5163 15.7299C15.5147 15.6393 15.4954 15.5499 15.4596 15.4671C15.4237 15.3843 15.372 15.3098 15.3075 15.248L12.9275 12.8L15.3075 10.352C15.372 10.2902 15.4237 10.2157 15.4596 10.1329C15.4954 10.0501 15.5147 9.9607 15.5163 9.87007C15.5178 9.77944 15.5016 9.68941 15.4686 9.60536C15.4356 9.52131 15.3865 9.44496 15.3242 9.38087C15.2618 9.31677 15.1876 9.26624 15.1059 9.23229C15.0242 9.19834 14.9367 9.18167 14.8485 9.18327C14.7604 9.18487 14.6735 9.2047 14.593 9.2416C14.5125 9.27849 14.4401 9.33168 14.38 9.398L12 11.846L9.62 9.398C9.49695 9.27159 9.33016 9.20059 9.15625 9.20059C8.98234 9.20059 8.81555 9.27159 8.6925 9.398Z" fill="white"/>
</g>
<defs>
<filter id="filter0_d_2309_28005" x="4" y="2" width="16" height="20" filterUnits="userSpaceOnUse" color-interpolation-filters="sRGB">
<feFlood flood-opacity="0" result="BackgroundImageFix"/>
<feColorMatrix in="SourceAlpha" type="matrix" values="0 0 0 0 0 0 0 0 0 0 0 0 0 0 0 0 0 0 127 0" result="hardAlpha"/>
<feOffset dy="1"/>
<feGaussianBlur stdDeviation="0.5"/>
<feComposite in2="hardAlpha" operator="out"/>
<feColorMatrix type="matrix" values="0 0 0 0 0 0 0 0 0 0 0 0 0 0 0 0 0 0 0.75 0"/>
<feBlend mode="normal" in2="BackgroundImageFix" result="effect1_dropShadow_2309_28005"/>
<feBlend mode="normal" in="SourceGraphic" in2="effect1_dropShadow_2309_28005" result="shape"/>
</filter>
</defs>
</svg>
