<svg xmlns="http://www.w3.org/2000/svg" fill="none" viewBox="0 0 24 25"><path fill="url(#a)" fill-rule="evenodd" d="M21.932 12.148c-1.032 6.657-5.658 11.582-11.275 11.51-7.322.176-8.814-4.9-7.597-10.392C4.233 7.984 7.221 2.45 12.124 1.533 17.51.526 22.905 5.87 21.932 12.148Z" clip-rule="evenodd"/><path fill="#291D17" fill-rule="evenodd" d="M20.297 10.529c-.965 6.736-6.112 12.847-11.442 12.774-4.8-.066-7.693-4.985-6.538-10.615C3.43 7.273 7.315 2.453 11.967 1.512c5.11-1.033 9.254 2.58 8.33 9.017Z" clip-rule="evenodd"/><path fill="url(#b)" fill-rule="evenodd" d="M14.54 1.455a6.84 6.84 0 0 0-2.63.054c-1.793.372-3.539 1.381-5.054 2.801l2.972 7.176.842-.378 3.87-9.653Zm-7.816 2.98c-1.477 1.42-2.727 3.232-3.576 5.217l5.742 2.256.783-.352-2.949-7.12ZM3.083 9.808c-.38.913-.674 1.861-.868 2.825a13.18 13.18 0 0 0-.26 2.393l6.722-3.021-5.594-2.197Zm-1.13 5.404c.004 3.485 1.534 6.312 4.139 7.32l3.997-9.972-1.193-.469-6.943 3.12Zm4.299 7.38c.596.21 1.247.326 1.946.336 1.842.026 3.715-.676 5.401-1.893l-3.417-8.25-3.93 9.806Zm7.488-1.66c1.725-1.283 3.246-3.107 4.325-5.24l-7.757-3.046 3.432 8.285Zm4.4-5.39a15.552 15.552 0 0 0 1.457-4.701c.18-1.29.172-2.485.002-3.56l-8.794 3.952-.495 1.234 7.83 3.075Zm1.43-8.433c-.535-3.035-2.374-5.087-4.86-5.619l-3.815 9.518 8.675-3.9Zm-9.832 4.604.262.632-.89-.35.628-.282Zm.155-.07.687-.309-.4 1-.287-.691Z" clip-rule="evenodd"/><path fill="url(#c)" fill-rule="evenodd" d="M18.546 10.977c-.814 5.963-5.522 10.95-10.016 10.886-4.047-.058-6.23-4.288-5.257-9.272.939-4.794 4.597-9.185 8.52-10.018 4.308-.914 7.532 2.706 6.753 8.404Z" clip-rule="evenodd"/><path stroke="#2F0037" stroke-opacity=".8" stroke-width=".5" d="M18.299 10.943c.382-2.8-.223-5.052-1.414-6.488-1.185-1.428-2.973-2.076-5.04-1.637l6.454 8.125Zm0 0c-.4 2.929-1.757 5.62-3.564 7.567m3.564-7.567-3.564 7.567m0 0c-1.81 1.952-4.047 3.134-6.201 3.103m6.201-3.103-6.201 3.103m0 0c-1.924-.028-3.404-1.041-4.296-2.66m4.296 2.66-4.296-2.66m0 0c-.896-1.625-1.197-3.866-.72-6.314m.72 6.314-.72-6.314m0 0c.461-2.353 1.59-4.61 3.087-6.38m-3.086 6.38 3.086-6.38m0 0c1.497-1.773 3.347-3.04 5.24-3.441l-5.24 3.44Z"/><g fill="#9C6F5B" filter="url(#d)"><path d="m5.77 9.89 7.818-4.487-5.083 5.419-1.058-.73L5.77 9.89ZM6.461 14.193 15.204 6.2 7.153 18.497l.305-2.978-.997-1.326ZM10.69 17.113l5.388-8.396-.803 2.315-3.466 6.215-1.118-.134Z"/></g><defs><linearGradient id="a" x1="17.701" x2="7.674" y1="2.702" y2="23.428" gradientUnits="userSpaceOnUse"><stop stop-color="#201612"/><stop offset=".5" stop-color="#87604F"/><stop offset="1" stop-color="#392921"/></linearGradient><linearGradient id="b" x1="15.547" x2="4.821" y1="1.987" y2="22.018" gradientUnits="userSpaceOnUse"><stop stop-color="#D69E1E"/><stop offset=".453" stop-color="#FFD734"/><stop offset="1" stop-color="#A35500"/></linearGradient><linearGradient id="c" x1="14.988" x2="5.196" y1="3.004" y2="20.843" gradientUnits="userSpaceOnUse"><stop stop-color="#D69E1E"/><stop offset=".453" stop-color="#FFD734"/><stop offset="1" stop-color="#A35500"/></linearGradient><filter id="d" width="12.308" height="15.093" x="4.77" y="5.403" color-interpolation-filters="sRGB" filterUnits="userSpaceOnUse"><feFlood flood-opacity="0" result="BackgroundImageFix"/><feColorMatrix in="SourceAlpha" result="hardAlpha" values="0 0 0 0 0 0 0 0 0 0 0 0 0 0 0 0 0 0 127 0"/><feOffset dy="1"/><feGaussianBlur stdDeviation=".5"/><feComposite in2="hardAlpha" operator="out"/><feColorMatrix values="0 0 0 0 1 0 0 0 0 0.926108 0 0 0 0 0.625 0 0 0 1 0"/><feBlend in2="BackgroundImageFix" result="effect1_dropShadow_1801_9234"/><feBlend in="SourceGraphic" in2="effect1_dropShadow_1801_9234" result="shape"/><feColorMatrix in="SourceAlpha" result="hardAlpha" values="0 0 0 0 0 0 0 0 0 0 0 0 0 0 0 0 0 0 127 0"/><feOffset dx="1"/><feComposite in2="hardAlpha" k2="-1" k3="1" operator="arithmetic"/><feColorMatrix values="0 0 0 0 0 0 0 0 0 0 0 0 0 0 0 0 0 0 0.55 0"/><feBlend in2="shape" result="effect2_innerShadow_1801_9234"/><feColorMatrix in="SourceAlpha" result="hardAlpha" values="0 0 0 0 0 0 0 0 0 0 0 0 0 0 0 0 0 0 127 0"/><feOffset/><feGaussianBlur stdDeviation="1.5"/><feComposite in2="hardAlpha" k2="-1" k3="1" operator="arithmetic"/><feColorMatrix values="0 0 0 0 0 0 0 0 0 0 0 0 0 0 0 0 0 0 0.25 0"/><feBlend in2="effect2_innerShadow_1801_9234" result="effect3_innerShadow_1801_9234"/></filter></defs></svg>