<svg xmlns="http://www.w3.org/2000/svg" fill="#fff" viewBox="0 0 24 24"><path fill-rule="evenodd" d="M10.435 5a2.265 2.265 0 0 0-2.264 2.265c0 .19-.154.343-.344.343H5.655a2.7 2.7 0 0 0-2.7 2.7v6.431a2.7 2.7 0 0 0 2.7 2.7h12.69a2.7 2.7 0 0 0 2.7-2.7v-6.431a2.7 2.7 0 0 0-2.7-2.7h-2.172a.343.343 0 0 1-.343-.343A2.265 2.265 0 0 0 13.564 5h-3.13Zm-.864 2.265c0-.478.387-.865.864-.865h3.13c.477 0 .865.387.865.865 0 .962.78 1.743 1.743 1.743h2.172a1.3 1.3 0 0 1 1.3 1.3v6.431a1.3 1.3 0 0 1-1.3 1.3H5.655a1.3 1.3 0 0 1-1.3-1.3v-6.431a1.3 1.3 0 0 1 1.3-1.3h2.172c.963 0 1.744-.78 1.744-1.743ZM12 16.089a3.086 3.086 0 1 0 0-6.173 3.086 3.086 0 0 0 0 6.172Zm2.086-3.087a2.086 2.086 0 1 1-4.172 0 2.086 2.086 0 0 1 4.172 0Z" clip-rule="evenodd"/></svg>