<svg xmlns="http://www.w3.org/2000/svg" fill="none" viewBox="0 0 24 25"><mask id="tether-mask" width="22" height="25" x="1" y="0" maskUnits="userSpaceOnUse"><path fill="#1EF6DF" class="tether-mask-type" fill-rule="evenodd" d="m5.48 4.774-.25-.276L13.314.5l5.86 4.6v11.24L18 15.623l-.255-9.9.255 9.9 1.175.717V5.1l2.871 3.141L20.76 18.86l-9.574 5.64-1.854-.544-6.843-3.47-.814-7.682L5.23 4.498l.25.276-3.277 7.964L5.48 4.774Z" clip-rule="evenodd"/></mask><g mask="url(#tether-mask)"><path fill="url(#b)" d="M22.047 8.241 20.759 18.86l-1.584-2.52V5.1l2.872 3.141Z"/><path fill="url(#c)" d="m9.33 23.956 9.844-7.616 1.585 2.52-9.574 5.64-1.854-.544Z"/><path fill="url(#d)" d="m12.541 1.486 5.204 4.238.255 9.899-8.88 7.016L2.93 19.64l-.727-6.903L5.48 4.774l7.061-3.288Z"/><path fill="url(#e)" d="m13.314.5-.773.986 5.204 4.238 1.43-.623L13.315.5Z"/><path fill="url(#f)" d="M5.23 4.498 13.314.5l-.773.986L5.48 4.774l-.25-.276Z"/><path fill="url(#g)" d="m1.674 12.804.53-.067L5.48 4.774l-.25-.276-3.556 8.306Z"/><path fill="url(#h)" d="m9.33 23.956-.21-1.317-6.19-2.998-.442.846 6.843 3.47Z"/><path fill="url(#i)" d="M19.175 16.34 18 15.623l-8.88 7.016.21 1.317 9.845-7.616Z"/><path fill="url(#j)" d="m19.175 5.1-1.43.624.255 9.899 1.175.717V5.1Z"/><path fill="url(#k)" d="m2.488 20.486.443-.845-.728-6.903-.529.066.814 7.682Z"/><path fill="#1EF6DF" fill-rule="evenodd" d="m4.081 3.08-.304-.335 9.856-4.875 7.145 5.61v13.702l-1.433-.875-.31-12.068.31 12.068 1.433.875V3.479l3.501 3.829-1.57 12.946-11.672 6.876-2.26-.663-8.343-4.23-.992-9.367L3.777 2.745l.304.336Z" clip-rule="evenodd" style="mix-blend-mode:hue"/></g><path fill="#00211E" fill-rule="evenodd" d="M10.726 12.944a11.95 11.95 0 0 1-1.055.134c-.533.053-.904.07-1.03.07-1.953.08-3.256-.207-3.159-.712.098-.505 1.566-1.117 3.539-1.457l-.301 1.727c.128 0 .502 0 1.035-.064.65-.067.985-.14 1.046-.15l.296-1.775c2.163-.16 3.81.1 3.726.667-.084.566-1.884 1.225-4.097 1.56Zm.39-2.412.26-1.562 3.07-.464.371-2.425L7.04 7.477 6.652 9.68l2.684-.402-.279 1.524c-2.232.41-3.907 1.15-4.027 1.803-.12.653 1.343 1.046 3.533.968L7.66 18.72l2.115-.044.882-5.303c2.512-.374 4.602-1.186 4.711-1.93.109-.746-1.778-1.117-4.239-.925l-.011.014Z" clip-rule="evenodd"/><path fill="#fff" fill-rule="evenodd" d="M10.447 12.665c-.062.014-.374.067-1.055.134-.533.053-.904.07-1.03.07-1.953.08-3.257-.207-3.159-.712.098-.505 1.566-1.117 3.539-1.457l-.302 1.727c.129 0 .503 0 1.036-.064.65-.067.985-.14 1.046-.15l.296-1.775c2.163-.16 3.81.1 3.726.667-.084.566-1.884 1.225-4.097 1.56Zm.39-2.412.26-1.562 3.07-.464.371-2.425L6.76 7.198l-.388 2.204L9.057 9l-.279 1.524c-2.233.41-3.907 1.15-4.027 1.803-.12.653 1.342 1.046 3.533.968l-.904 5.146 2.115-.044.882-5.303c2.512-.374 4.602-1.186 4.71-1.93.11-.746-1.777-1.117-4.238-.925l-.011.014Z" clip-rule="evenodd"/><defs><linearGradient id="c" x1="10.195" x2="20.379" y1="22.968" y2="19.291" gradientUnits="userSpaceOnUse"><stop stop-color="#2F0037"/><stop offset="1" stop-color="#34003C"/></linearGradient><linearGradient id="e" x1="15.858" x2="15.023" y1=".5" y2="4.839" gradientUnits="userSpaceOnUse"><stop stop-color="#F09AFF"/><stop offset="1" stop-color="#B138DF"/></linearGradient><linearGradient id="f" x1="5.236" x2="13.396" y1="5.862" y2=".018" gradientUnits="userSpaceOnUse"><stop stop-color="#9539B9"/><stop offset="1" stop-color="#403250"/></linearGradient><linearGradient id="g" x1="3.577" x2="3.577" y1="4.498" y2="12.804" gradientUnits="userSpaceOnUse"><stop stop-color="#E68DE6"/><stop offset="1" stop-color="#FFE0FF"/></linearGradient><linearGradient id="h" x1="9.305" x2="2.434" y1="22.585" y2="20.811" gradientUnits="userSpaceOnUse"><stop stop-color="#C164C1"/><stop offset="1" stop-color="#FF45FF"/></linearGradient><linearGradient id="i" x1="18.462" x2="9.529" y1="15.564" y2="23.701" gradientUnits="userSpaceOnUse"><stop stop-color="#A44AA4"/><stop offset="1" stop-color="#AA53AA"/></linearGradient><linearGradient id="j" x1="18.46" x2="18.46" y1="5.101" y2="16.34" gradientUnits="userSpaceOnUse"><stop stop-color="#AD2CB9"/><stop offset="1" stop-color="#AD70AD"/></linearGradient><linearGradient id="k" x1="2.303" x2="2.303" y1="12.738" y2="20.486" gradientUnits="userSpaceOnUse"><stop stop-color="#F2B5F2"/><stop offset="1" stop-color="#D82CD8"/></linearGradient><radialGradient id="b" cx="0" cy="0" r="1" gradientTransform="matrix(4.83294 -14.93615 3.11966 1.00944 19.226 15.947)" gradientUnits="userSpaceOnUse"><stop offset=".156" stop-color="#D340D3"/><stop offset="1" stop-color="#8F1E8F"/></radialGradient><radialGradient id="d" cx="0" cy="0" r="1" gradientTransform="rotate(-43.008 24.186 2.226) scale(17.2184 12.9094)" gradientUnits="userSpaceOnUse"><stop stop-color="#FF45FF"/><stop offset=".929" stop-color="#E68DE6"/></radialGradient></defs></svg>