<svg xmlns="http://www.w3.org/2000/svg" fill="#fff" viewBox="0 0 24 24"><path fill-rule="evenodd" d="M13.786 12.6h-3.641c-3.62-.157-6.32-.745-6.32-1.49 0-.744 2.7-1.34 6.32-1.489v2.375c.239 0 .918.06 1.851.06 1.127 0 1.69-.052 1.79-.06V9.621c3.61.157 6.311.745 6.311 1.49 0 .744-2.7 1.332-6.31 1.488Zm0-3.224v-2.13h5.046V4H5.145v3.246h5.038v2.13C6.086 9.554 3 10.336 3 11.28c0 .946 3.086 1.72 7.183 1.906V20h3.65v-6.82c4.089-.179 7.167-.96 7.167-1.899 0-.938-3.086-1.727-7.175-1.905h-.039Z" clip-rule="evenodd"/></svg>