<svg viewBox="0 0 24 24" fill="none" xmlns="http://www.w3.org/2000/svg">
  <path d="M6.39758 3.86364C6.39758 3.63459 6.48707 3.41492 6.64636 3.25295C6.80565 3.09099 7.0217 3 7.24697 3H14.0421C14.2674 3 14.4834 3.09099 14.6427 3.25295C14.802 3.41492 14.8915 3.63459 14.8915 3.86364C14.8915 4.09269 14.802 4.31236 14.6427 4.47432C14.4834 4.63628 14.2674 4.72727 14.0421 4.72727H7.24697C7.0217 4.72727 6.80565 4.63628 6.64636 4.47432C6.48707 4.31236 6.39758 4.09269 6.39758 3.86364ZM9.79515 15.9545C9.79515 16.1836 9.88464 16.4033 10.0439 16.5652C10.2032 16.7272 10.4193 16.8182 10.6445 16.8182C10.8698 16.8182 11.0859 16.7272 11.2452 16.5652C11.4045 16.4033 11.4939 16.1836 11.4939 15.9545V10.7727C11.4939 10.5437 11.4045 10.324 11.2452 10.162C11.0859 10.0001 10.8698 9.90909 10.6445 9.90909C10.4193 9.90909 10.2032 10.0001 10.0439 10.162C9.88464 10.324 9.79515 10.5437 9.79515 10.7727V15.9545ZM10.6445 6.45455C9.64065 6.45455 8.64658 6.65559 7.71911 7.04621C6.79163 7.43683 5.9489 8.00936 5.23904 8.73112C4.52917 9.45289 3.96608 10.3097 3.58191 11.2528C3.19773 12.1958 3 13.2065 3 14.2273C3 15.248 3.19773 16.2587 3.58191 17.2018C3.96608 18.1448 4.52917 19.0017 5.23904 19.7234C5.9489 20.4452 6.79163 21.0177 7.71911 21.4083C8.64658 21.799 9.64065 22 10.6445 22C12.672 22 14.6164 21.1811 16.0501 19.7234C17.4837 18.2658 18.2891 16.2887 18.2891 14.2273C18.2891 12.1658 17.4837 10.1888 16.0501 8.73112C14.6164 7.27346 12.672 6.45455 10.6445 6.45455ZM4.69879 14.2273C4.69879 13.4334 4.85258 12.6472 5.15138 11.9138C5.45018 11.1803 5.88815 10.5139 6.44026 9.95249C6.99238 9.39112 7.64783 8.94581 8.3692 8.642C9.09058 8.33819 9.86374 8.18182 10.6445 8.18182C11.4254 8.18182 12.1985 8.33819 12.9199 8.642C13.6413 8.94581 14.2967 9.39112 14.8488 9.95249C15.4009 10.5139 15.8389 11.1803 16.1377 11.9138C16.4365 12.6472 16.5903 13.4334 16.5903 14.2273C16.5903 15.8306 15.9639 17.3683 14.8488 18.5021C13.7338 19.6358 12.2215 20.2727 10.6445 20.2727C9.06763 20.2727 7.55531 19.6358 6.44026 18.5021C5.32521 17.3683 4.69879 15.8306 4.69879 14.2273ZM18.5405 9.65518C18.619 9.73755 18.7128 9.8032 18.8165 9.84831C18.9202 9.89341 19.0317 9.91707 19.1445 9.9179C19.2572 9.91873 19.369 9.89672 19.4734 9.85315C19.5777 9.80957 19.6724 9.74531 19.7521 9.66411C19.8317 9.58291 19.8946 9.48639 19.9372 9.3802C19.9798 9.27401 20.0011 9.16026 20 9.04559C19.9988 8.93092 19.9752 8.81763 19.9306 8.71233C19.8859 8.60703 19.8211 8.51183 19.7399 8.43227L18.0377 6.70845C17.9592 6.62609 17.8654 6.56044 17.7617 6.51533C17.658 6.47022 17.5465 6.44656 17.4337 6.44573C17.321 6.4449 17.2091 6.46692 17.1048 6.51049C17.0005 6.55406 16.9058 6.61833 16.8261 6.69953C16.7465 6.78073 16.6836 6.87724 16.641 6.98344C16.5984 7.08963 16.5771 7.20338 16.5782 7.31805C16.5794 7.43272 16.603 7.546 16.6476 7.65131C16.6923 7.75661 16.7571 7.85181 16.8383 7.93136L18.5405 9.65518Z" fill="white" />
</svg>