<svg width="24" height="24" viewBox="0 0 24 24" fill="none" xmlns="http://www.w3.org/2000/svg">
<path fill-rule="evenodd" clip-rule="evenodd" d="M13.3 8V8.7H14H17.6V19C17.6 19.3314 17.3314 19.6 17 19.6H7C6.66863 19.6 6.4 19.3314 6.4 19V5C6.4 4.66863 6.66863 4.4 7 4.4H13.3V8ZM19 8.7V8L18.3 7.3L14.7 3.7L14 3H13.3H7C5.89543 3 5 3.89543 5 5V19C5 20.1046 5.89543 21 7 21H17C18.1046 21 19 20.1046 19 19V8.7ZM14.7 5.6799L16.3201 7.3H14.7V5.6799ZM11 14.6C11.8837 14.6 12.6 13.8837 12.6 13C12.6 12.1163 11.8837 11.4 11 11.4C10.1163 11.4 9.4 12.1163 9.4 13C9.4 13.8837 10.1163 14.6 11 14.6ZM11 16C11.5748 16 12.1118 15.8384 12.5681 15.558L14.505 17.495C14.7784 17.7683 15.2216 17.7683 15.495 17.495C15.7683 17.2216 15.7683 16.7784 15.495 16.505L13.558 14.5681C13.8384 14.1118 14 13.5748 14 13C14 11.3431 12.6569 10 11 10C9.34315 10 8 11.3431 8 13C8 14.6569 9.34315 16 11 16Z" fill="white"/>
</svg>
