<svg width="24" height="24" viewBox="0 0 24 24" fill="none" xmlns="http://www.w3.org/2000/svg">
<path d="M10.6667 12.8889H4.44444C4.17778 12.8889 4 13.0667 4 13.3333V19.5556C4 19.8222 4.17778 20 4.44444 20H10.6667C10.9333 20 11.1111 19.8222 11.1111 19.5556V13.3333C11.1111 13.0667 10.9333 12.8889 10.6667 12.8889ZM10.2222 19.1111H4.88889V13.7778H10.2222V19.1111ZM10.6667 4H4.44444C4.17778 4 4 4.17778 4 4.44444V10.6667C4 10.9333 4.17778 11.1111 4.44444 11.1111H10.6667C10.9333 11.1111 11.1111 10.9333 11.1111 10.6667V4.44444C11.1111 4.17778 10.9333 4 10.6667 4ZM10.2222 10.2222H4.88889V4.88889H10.2222V10.2222ZM19.5556 4H13.3333C13.0667 4 12.8889 4.17778 12.8889 4.44444V10.6667C12.8889 10.9333 13.0667 11.1111 13.3333 11.1111H19.5556C19.8222 11.1111 20 10.9333 20 10.6667V4.44444C20 4.17778 19.8222 4 19.5556 4ZM19.1111 10.2222H13.7778V4.88889H19.1111V10.2222ZM19.5556 16H16.8889V13.3333C16.8889 13.0667 16.7111 12.8889 16.4444 12.8889C16.1778 12.8889 16 13.0667 16 13.3333V16H13.3333C13.0667 16 12.8889 16.1778 12.8889 16.4444C12.8889 16.7111 13.0667 16.8889 13.3333 16.8889H16V19.5556C16 19.8222 16.1778 20 16.4444 20C16.7111 20 16.8889 19.8222 16.8889 19.5556V16.8889H19.5556C19.8222 16.8889 20 16.7111 20 16.4444C20 16.1778 19.8222 16 19.5556 16Z" fill="white"/>
</svg>
