<svg width="24" height="24" viewBox="0 0 24 24" fill="none" xmlns="http://www.w3.org/2000/svg">
<path d="M8.5 4.5C5.60875 4.5 3.25 6.85875 3.25 9.75C3.25 11.5575 4.1725 13.1625 5.5705 14.1097C2.89525 15.2572 1 17.9122 1 21H2.5C2.5 17.6775 5.1775 15 8.5 15C11.8225 15 14.5 17.6775 14.5 21H16C16 17.9122 14.1047 15.258 11.4295 14.109C12.143 13.6273 12.7276 12.9781 13.1321 12.2182C13.5367 11.4583 13.7488 10.6109 13.75 9.75C13.75 6.85875 11.3912 4.5 8.5 4.5ZM8.5 6C10.5798 6 12.25 7.67025 12.25 9.75C12.25 11.8298 10.5798 13.5 8.5 13.5C6.42025 13.5 4.75 11.8298 4.75 9.75C4.75 7.67025 6.42025 6 8.5 6Z" fill="white"/>
<path fill-rule="evenodd" clip-rule="evenodd" d="M23.5355 8.17157L20.3535 11.3536C20.1583 11.5488 19.8417 11.5488 19.6464 11.3536L16.4645 8.17157C16.2692 7.97631 16.2692 7.65973 16.4645 7.46447C16.6597 7.2692 16.9763 7.2692 17.1716 7.46447L19.5 9.79289L19.5 3L20.5 3L20.5 9.79289L22.8284 7.46447C23.0237 7.2692 23.3403 7.2692 23.5355 7.46447C23.7308 7.65973 23.7308 7.97631 23.5355 8.17157Z" fill="white"/>
</svg>
