<svg width="24" height="24" viewBox="0 0 24 24" fill="none" xmlns="http://www.w3.org/2000/svg">
<mask id="path-1-inside-1_358_2690" fill="white">
<path d="M7 21H3V17L5 15L14 6L15 5C16.1046 3.89543 17.8954 3.89543 19 5C20.1046 6.10457 20.1046 7.89543 19 9L18 10L9 19L7 21Z"/>
</mask>
<path d="M13.505 6.49497L17.505 10.495L18.495 9.50503L14.495 5.50503L13.505 6.49497ZM4.50503 15.495L8.50503 19.495L9.49497 18.505L5.49497 14.505L4.50503 15.495ZM3 21H1.6V22.4H3V21ZM7 21V22.4H7.5799L7.98995 21.99L7 21ZM3 17L2.01005 16.0101L1.6 16.4201V17H3ZM14 6L13.0101 5.01005V5.01005L14 6ZM19 9L19.9899 9.98995V9.98995L19 9ZM15 5L15.9899 5.98995V5.98995L15 5ZM19 5L18.0101 5.98995V5.98995L19 5ZM3 22.4H7V19.6H3V22.4ZM4.4 21V17H1.6V21H4.4ZM18.01 8.01005L17.0101 9.01005L18.9899 10.9899L19.9899 9.98995L18.01 8.01005ZM14.9899 6.98995L15.9899 5.98995L14.01 4.01005L13.0101 5.01005L14.9899 6.98995ZM3.98995 17.9899L5.98995 15.9899L4.01005 14.0101L2.01005 16.0101L3.98995 17.9899ZM5.98995 15.9899L14.9899 6.98995L13.0101 5.01005L4.01005 14.0101L5.98995 15.9899ZM7.98995 21.99L9.98995 19.99L8.01005 18.0101L6.01005 20.01L7.98995 21.99ZM9.98995 19.99L18.9899 10.9899L17.0101 9.01005L8.01005 18.0101L9.98995 19.99ZM15.9899 5.98995C16.5478 5.43211 17.4522 5.43211 18.0101 5.98995L19.99 4.01005C18.3386 2.35875 15.6614 2.35875 14.01 4.01005L15.9899 5.98995ZM19.9899 9.98995C21.6413 8.33865 21.6413 5.66136 19.9899 4.01005L18.0101 5.98995C18.5679 6.54778 18.5679 7.45221 18.01 8.01005L19.9899 9.98995Z" fill="white" mask="url(#path-1-inside-1_358_2690)"/>
</svg>
