<svg width="24" height="24" viewBox="0 0 24 24" fill="none" xmlns="http://www.w3.org/2000/svg">
<path fill-rule="evenodd" clip-rule="evenodd" d="M10.4353 5C9.18447 5 8.17051 6.01396 8.17051 7.26475C8.17051 7.45427 8.01687 7.60791 7.82734 7.60791H5.65469C4.16352 7.60791 2.95469 8.81674 2.95469 10.3079V16.7395C2.95469 18.2307 4.16352 19.4395 5.65469 19.4395H18.3453C19.8365 19.4395 21.0453 18.2307 21.0453 16.7395V10.3079C21.0453 8.81674 19.8365 7.60791 18.3453 7.60791H16.1727C15.9831 7.60791 15.8295 7.45427 15.8295 7.26475C15.8295 6.01396 14.8155 5 13.5647 5H10.4353ZM9.57051 7.26475C9.57051 6.78716 9.95767 6.4 10.4353 6.4H13.5647C14.0423 6.4 14.4295 6.78716 14.4295 7.26475C14.4295 8.22747 15.2099 9.00791 16.1727 9.00791H18.3453C19.0633 9.00791 19.6453 9.58994 19.6453 10.3079V16.7395C19.6453 17.4575 19.0633 18.0395 18.3453 18.0395H5.65469C4.93672 18.0395 4.35469 17.4575 4.35469 16.7395V10.3079C4.35469 9.58994 4.93672 9.00791 5.65469 9.00791H7.82734C8.79007 9.00791 9.57051 8.22747 9.57051 7.26475ZM12 16.0885C13.7045 16.0885 15.0863 14.7067 15.0863 13.0021C15.0863 11.2976 13.7045 9.91582 12 9.91582C10.2955 9.91582 8.91367 11.2976 8.91367 13.0021C8.91367 14.7067 10.2955 16.0885 12 16.0885ZM14.0863 13.0021C14.0863 14.1544 13.1522 15.0885 12 15.0885C10.8478 15.0885 9.91367 14.1544 9.91367 13.0021C9.91367 11.8499 10.8478 10.9158 12 10.9158C13.1522 10.9158 14.0863 11.8499 14.0863 13.0021Z" fill="white"/>
</svg>
