<svg width="24" height="24" viewBox="0 0 24 24" fill="none" xmlns="http://www.w3.org/2000/svg">
<path fill-rule="evenodd" clip-rule="evenodd" d="M13.7861 12.5993C13.6858 12.5993 13.1534 12.5993 11.9807 12.5993C11.0394 12.5993 10.3759 12.5993 10.1445 12.5993C6.52593 12.443 3.82555 11.8548 3.82555 11.1103C3.82555 10.3658 6.52593 9.77012 10.1445 9.62122V11.9963C10.3836 11.9963 11.0626 12.0558 11.9961 12.0558C13.1226 12.0558 13.6858 12.0037 13.7861 11.9963V9.62122C17.3969 9.77757 20.0973 10.3658 20.0973 11.1103C20.0973 11.8548 17.3969 12.443 13.7861 12.5993ZM13.7861 9.37552V7.24616H18.832V4H5.14488V7.24616H10.183V9.37552C6.08615 9.55421 3 10.336 3 11.2815C3 12.2271 6.08615 13.0014 10.183 13.1875V20H13.8324V13.1801C17.9216 13.0014 21 12.2196 21 11.2815C21 10.3434 17.9138 9.55421 13.8247 9.37552H13.7861Z" fill="white"/>
</svg>
