<svg width="24" height="24" viewBox="0 0 24 24" fill="none" xmlns="http://www.w3.org/2000/svg">
<path d="M12 4.5C9.10875 4.5 6.75 6.85875 6.75 9.75C6.75 11.5575 7.6725 13.1625 9.0705 14.1097C6.39525 15.2572 4.5 17.9122 4.5 21H6C6 17.6775 8.6775 15 12 15C15.3225 15 18 17.6775 18 21H19.5C19.5 17.9122 17.6047 15.258 14.9295 14.109C15.643 13.6273 16.2276 12.9781 16.6321 12.2182C17.0367 11.4583 17.2488 10.6109 17.25 9.75C17.25 6.85875 14.8912 4.5 12 4.5ZM12 6C14.0798 6 15.75 7.67025 15.75 9.75C15.75 11.8298 14.0798 13.5 12 13.5C9.92025 13.5 8.25 11.8298 8.25 9.75C8.25 7.67025 9.92025 6 12 6Z" fill="white"/>
</svg>
